<svg width="72" height="72" viewBox="0 0 72 72" fill="none" xmlns="http://www.w3.org/2000/svg">
<circle cx="36" cy="36" r="35" fill="#FFF7ED" stroke="#1F2937" stroke-width="2"/>
<path d="M34.7026 15.3294C34.3773 15.3481 34.1216 15.4842 33.7849 15.8131L33.3221 16.2749L32.8266 15.5169C32.4036 14.8551 32.2799 14.7409 31.828 14.6665C30.8729 14.4998 30.3747 15.3652 30.6214 16.7441C30.7583 17.4516 31.3787 18.9262 32.0829 20.1114L32.5151 20.8605L32.8519 20.6068C33.2609 20.2988 34.6069 18.6817 35.1684 17.8253C35.9881 16.5858 35.7445 15.261 34.7026 15.3294ZM34.2196 17.7669C33.8412 18.3158 33.3034 19.0036 33.0179 19.2753C32.5189 19.7642 32.4948 19.7823 32.2683 19.4816C31.915 19.0124 31.306 17.2276 31.2474 16.4989C31.2005 15.6858 31.4497 15.2908 31.9919 15.3348C32.492 15.373 32.5615 15.4903 32.717 16.4478C32.7842 16.8873 32.9236 17.3479 33.0324 17.4922C33.1864 17.6967 33.2526 17.6845 33.496 17.407C33.6493 17.235 34.064 16.8095 34.4338 16.4744L35.1103 15.8707L35.0148 16.3197C34.9701 16.5607 34.61 17.209 34.2196 17.7669Z" fill="black"/>
<path d="M29.4885 21.6774C29.2106 21.8435 28.9312 22.19 28.7835 22.6217C28.5557 23.2872 28.5254 23.317 28.1368 23.0434C27.4012 22.5505 26.6808 22.4245 26.1912 22.7392C24.8377 23.5821 25.7568 25.1827 28.7232 27.1424C29.4947 27.6476 30.2369 28.0624 30.3813 28.0516C30.7482 28.0365 31.6475 25.3502 31.6998 24.082C31.7738 22.339 30.5996 21.0731 29.4885 21.6774ZM30.5546 24.4336C30.4825 25.1725 30.3068 26.097 30.1652 26.5107C29.9251 27.2122 29.9009 27.224 29.4702 26.956C28.4771 26.3348 27.3312 25.2795 26.9872 24.6996C26.2039 23.4067 26.9738 22.6252 27.8844 23.7809C28.7174 24.8698 28.9204 25.0397 29.203 25.036C29.3654 25.0313 29.4927 24.894 29.4824 24.6895C29.463 24.1001 29.8296 22.6181 30.0725 22.3194C30.3031 22.0567 30.3329 22.087 30.5094 22.5694C30.6154 22.8468 30.6446 23.7008 30.5546 24.4336Z" fill="black"/>
<path d="M50.3657 25.4709C48.5848 25.8327 46.4143 27.1405 45.5238 28.3649C45.1064 28.9493 44.4664 30.1737 44.1603 31.0641L43.5759 32.7059L42.3237 31.6206C39.7915 29.3667 36.981 28.7545 34.5601 29.951C31.6104 31.3702 30.9148 35.739 32.974 39.9408C33.9479 41.9444 37.621 45.6175 40.1533 47.1201C43.3812 49.0124 45.663 49.7637 48.223 49.7915C50.1987 49.7915 50.6161 49.708 51.9518 48.9845C52.7866 48.5115 54.1779 47.4541 55.0406 46.5914C61.2181 40.4974 62.7207 31.4259 58.185 27.4188C56.2928 25.777 53.0092 24.9422 50.3657 25.4709ZM55.5414 26.8344C57.8232 28.0032 58.992 29.9789 59.1589 32.9842C59.4094 37.4364 57.4337 42.2505 53.9275 45.8401C51.6735 48.1219 50.0039 49.0958 48.3343 49.1237C44.049 49.1515 36.6471 44.0314 34.4488 39.5513C32.974 36.6016 32.9461 33.2624 34.3653 31.565C36.174 29.4223 38.2054 29.5893 40.9046 32.0937C41.795 32.9285 42.7411 33.9581 42.9916 34.4033C43.9933 36.1008 44.9116 35.739 45.1064 33.5685C45.4125 29.9232 47.6386 27.0849 50.7274 26.2779C51.9518 25.944 54.3727 26.2501 55.5414 26.8344Z" fill="black"/>
<path d="M48.154 36.8685C47.8296 36.965 47.6983 37.2618 47.7533 37.7036C47.877 38.6977 48.6675 38.5152 48.6542 37.5073C48.658 36.8619 48.5579 36.7341 48.154 36.8685Z" fill="black"/>
<path d="M43.7314 37.4991C43.4123 37.6122 43.2965 37.9153 43.3742 38.3537C43.549 39.3401 44.329 39.1171 44.2638 38.1113C44.2343 37.4665 44.1278 37.3441 43.7314 37.4991Z" fill="black"/>
<path d="M49.7176 40.0968C49.6141 39.9718 49.145 40.1309 48.7082 40.449C47.7282 41.1361 46.0968 41.328 44.8896 40.9023C43.8661 40.5414 43.4849 40.702 43.499 41.4151C43.5146 42.0403 45.4998 42.7698 46.7176 42.5796C48.4556 42.3368 50.2858 40.8283 49.7176 40.0968Z" fill="black"/>
<path d="M16.6341 35.0986C18.2982 34.3683 20.8258 34.1868 22.259 34.6746C22.9368 34.9118 24.1653 35.5438 24.9285 36.0953L26.352 37.1006L26.7503 35.4921C27.5215 32.1909 29.466 30.0714 32.1342 29.6546C35.3627 29.1153 38.4483 32.2854 39.1859 36.9062C39.5441 39.1049 38.658 44.2234 37.4539 46.9104C35.9057 50.3167 34.4734 52.2454 32.397 53.743C30.7821 54.8813 30.3928 55.0535 28.8843 55.2317C27.9294 55.3259 26.183 55.2632 24.9809 55.0551C16.4207 53.633 9.96624 47.0839 11.3651 41.1956C11.9659 38.7635 14.1688 36.1895 16.6341 35.0986ZM13.1892 39.195C11.9974 41.4648 12.1804 43.753 13.7753 46.3056C16.1356 50.089 20.524 52.8856 25.4578 53.7997C28.6147 54.3663 30.5405 54.2004 31.9212 53.2613C35.4399 50.8152 38.5402 42.3658 37.756 37.4374C37.2621 34.1768 35.3611 31.4314 33.2232 30.8616C30.5104 30.1523 28.9462 31.4591 28.1828 35.0612C27.9359 36.2565 27.7558 37.6431 27.8076 38.1513C27.9667 40.1159 27.0077 40.3492 25.598 38.6874C23.2477 35.8842 19.7929 34.8467 16.8034 35.9666C15.6102 36.3991 13.8078 38.044 13.1892 39.195Z" fill="black"/>
<path d="M25.0098 43.1399C25.3306 43.0318 25.6089 43.1987 25.8185 43.5915C26.29 44.4754 25.5387 44.7816 24.969 43.9501C24.5941 43.4247 24.6022 43.2627 25.0098 43.1399Z" fill="black"/>
<path d="M28.9855 41.1085C29.3115 41.0171 29.5808 41.1981 29.7699 41.6012C30.1952 42.5082 29.4292 42.7753 28.903 41.9156C28.5557 41.3716 28.5722 41.2102 28.9855 41.1085Z" fill="black"/>
<path d="M25.592 46.6802C25.6045 46.5185 26.0797 46.3782 26.6199 46.3866C27.8168 46.3837 29.2608 45.6006 30.0023 44.5571C30.6309 43.6725 31.0351 43.5842 31.4344 44.1752C31.7818 44.6951 30.5794 46.4351 29.4745 46.9813C27.914 47.7841 25.5489 47.6055 25.592 46.6802Z" fill="black"/>
</svg>
