<svg viewBox="0 0 72 72" fill="none" xmlns="http://www.w3.org/2000/svg">
<circle cx="36" cy="36" r="35" fill="#FFF7ED" stroke="#1F2937" stroke-width="2"/>
<path d="M19.0037 18.2797C18.9454 18.4548 18.9454 18.6299 19.0037 18.6883C19.0621 18.7467 18.6341 20.2059 18.0504 21.9375C17.4667 23.669 16.9998 25.245 16.9998 25.4395C16.9998 25.6341 17.5251 26.9182 18.1477 28.2607C20.5797 33.4554 28.1481 50.2265 28.4204 50.9853C28.8096 52.1332 29.3154 52.5223 31.6112 53.4757C32.7202 53.9426 34.5102 54.7209 35.5608 55.2267C37.448 56.1022 37.9344 56.1995 38.1095 55.6937C38.1485 55.5575 38.6932 54.0983 39.2964 52.464C39.9384 50.6935 40.347 49.3121 40.2886 49.0592C40.2302 48.8257 39.4715 46.919 38.5959 44.8372C37.7204 42.7554 34.9966 36.1987 32.5451 30.2646C30.0937 24.3306 28.0119 19.3887 27.934 19.3109C27.8368 19.2136 26.0663 18.9996 23.9845 18.8245C21.3774 18.6299 20.1127 18.4548 19.8987 18.2603C19.5096 17.9101 19.1594 17.9101 19.0037 18.2797ZM23.751 19.4665C25.0545 19.5444 26.2219 19.6611 26.3581 19.7389C26.5332 19.8557 26.1635 20.6923 25.0545 22.7546C24.1985 24.3306 23.4202 25.6147 23.323 25.6147C23.1284 25.6147 20.5213 19.8168 20.5018 19.3693C20.5018 19.1942 20.638 19.1553 20.9493 19.2136C21.1828 19.272 22.4474 19.3887 23.751 19.4665ZM21.0855 23.455C21.7859 25.0504 22.3696 26.4318 22.4085 26.5291C22.428 26.6264 21.5136 26.3151 20.3656 25.8481C19.2177 25.3812 18.2644 24.9337 18.2644 24.8364C18.2644 24.5057 19.6069 20.5172 19.7041 20.5172C19.782 20.5172 20.3851 21.8402 21.0855 23.455ZM31.8836 31.3153C34.2183 36.977 36.7671 43.164 37.5648 45.0318C38.3625 46.8995 39.0629 48.6895 39.1018 49.0202C39.1991 49.6428 37.8177 53.8064 37.5064 53.8259C37.1173 53.8453 30.4439 41.0822 26.1246 31.9962L23.8483 27.2295L25.4242 24.2138C27.1363 20.9063 27.3114 20.6145 27.506 20.8479C27.5838 20.9258 29.5489 25.6341 31.8836 31.3153ZM20.5018 26.7236C21.4746 27.1322 22.4474 27.5992 22.7004 27.7743C22.9533 27.9494 23.7705 29.3891 24.7627 31.5293C27.1558 36.6073 31.2221 44.6621 34.0432 49.8958C35.3857 52.4056 36.5531 54.5847 36.6114 54.7209C36.6698 54.896 36.3585 54.8181 35.7554 54.5068C35.2106 54.2345 33.9654 53.6702 32.9537 53.2422C31.942 52.8142 30.8719 52.3667 30.5801 52.2305C30.1326 52.0165 29.2181 50.1292 24.2179 39.0977C20.9882 32.0157 18.3617 26.1594 18.3617 26.0816C18.3617 25.8481 18.7508 25.9649 20.5018 26.7236Z" fill="#111827"/>
<path d="M52.4644 42.2054C52.2918 42.2542 51.6557 42.7192 51.0413 43.2219C50.4268 43.7245 49.4779 44.3086 48.9494 44.5414C48.0703 44.915 47.6656 44.9263 46.505 44.5987C46.03 44.4699 46.0306 44.8908 46.5005 45.2031C47.5051 45.8709 47.0768 48.3429 45.3706 51.5074C44.9454 52.3228 44.8165 52.7277 44.9409 52.9271C45.249 53.3422 45.5024 53.207 46.553 52.013C47.8246 50.592 49.4636 49.6023 51.26 49.1843C52.0529 49.0105 52.6948 48.783 52.6785 48.7021C52.6514 48.6374 52.4349 48.1898 52.1753 47.7369C51.5857 46.6908 51.708 45.4172 52.5799 43.7539C53.0427 42.8468 53.1501 42.4743 52.9772 42.3126C52.8422 42.1995 52.6208 42.1458 52.4644 42.2054ZM50.8986 45.4399C50.7912 45.8123 50.8462 46.5731 50.9981 47.1179L51.28 48.0996L49.7698 48.6144C48.9446 48.9069 48.1195 49.2696 47.9255 49.4209C47.4781 49.7777 47.4021 49.4702 47.7248 48.7035C47.8646 48.3526 47.9445 47.5646 47.9059 46.9549L47.8342 45.8326L48.7242 45.5832C49.2043 45.4584 49.9054 45.1768 50.2451 44.9821C50.5793 44.7604 50.9029 44.625 50.9677 44.6681C51.0163 44.7004 50.9898 45.0566 50.8986 45.4399Z" fill="#111827"/>
<path d="M48.85 29.7131C48.208 30.2579 47.5659 30.7054 47.4297 30.7054C47.1379 30.7054 45.6398 29.7131 45.2701 29.2656C44.9588 28.896 44.0833 28.8571 44.0833 29.2073C44.0833 29.3629 44.2973 30.1217 44.5697 30.8999C44.8421 31.6782 45.0561 32.437 45.0561 32.5732C45.0561 32.7094 44.2195 33.4876 43.2078 34.3242C41.9431 35.3359 41.3984 35.8807 41.5346 36.0169C41.6707 36.1531 42.4295 36.1336 43.8887 35.9585C45.0755 35.8223 46.0678 35.7445 46.1067 35.7834C46.1456 35.8223 46.5153 36.9119 46.9433 38.196C47.6243 40.2972 47.7605 40.5307 48.1885 40.589C48.6749 40.6474 48.6944 40.5696 49.2197 38.2543C49.5115 36.9313 49.8228 35.725 49.9006 35.5694C50.0174 35.3554 50.5816 35.2386 51.9824 35.1219C53.714 34.9857 54.6479 34.6939 54.1031 34.4604C54.0059 34.4215 53.1693 33.974 52.2548 33.4681L50.6011 32.5343V31.6782C50.6205 31.1918 50.6594 30.3552 50.6983 29.8299C50.7762 28.9738 50.7567 28.8571 50.4065 28.7987C50.173 28.7792 49.5504 29.1295 48.85 29.7131ZM49.4532 31.6004C49.3559 31.8533 49.278 31.8338 48.8695 31.5615L48.3831 31.2502L48.9084 30.8027L49.4337 30.3357L49.4921 30.8416C49.531 31.0945 49.5115 31.4447 49.4532 31.6004ZM46.5347 31.3085C46.5931 31.4253 46.5542 31.6198 46.4375 31.7366C46.1845 31.9895 45.9316 31.7755 45.7371 31.1334C45.6203 30.7248 45.6398 30.6859 45.99 30.8805C46.2235 30.9972 46.4569 31.1918 46.5347 31.3085ZM48.4414 32.2813C49.2002 32.7288 49.3364 33.293 48.9473 34.2853C48.7916 34.7328 48.6555 34.7912 47.8188 34.7912H46.885L46.6515 33.8767C46.418 33.0207 46.418 32.9623 46.9239 32.4175C47.5659 31.756 47.5659 31.756 48.4414 32.2813ZM51.3015 33.8378C51.749 34.0518 52.0603 34.2658 52.0213 34.2853C52.0019 34.3242 51.5544 34.4215 51.0485 34.4799L50.1147 34.616V34.0324C50.1147 33.3125 50.2703 33.293 51.3015 33.8378ZM45.7371 34.4409C45.8538 34.8884 45.7954 34.9857 45.4063 35.0635C44.5697 35.2386 43.6942 35.3165 43.6942 35.1997C43.6942 34.9663 45.3479 33.6627 45.4841 33.7794C45.5619 33.8573 45.6787 34.1491 45.7371 34.4409ZM48.7527 35.5499C48.7527 35.9391 48.2858 37.8068 48.1496 37.9625C48.0718 38.0598 47.8578 37.6706 47.6827 37.087C47.4881 36.5227 47.2935 35.9585 47.2546 35.8223C47.1768 35.6083 47.5854 35.4721 48.422 35.3943C48.5971 35.3943 48.7527 35.4527 48.7527 35.5499Z" fill="#111827"/>
<path d="M33.2703 53.8968L37.429 55.429L38.7423 51.708L33.2703 53.8968Z" fill="#111827"/>
</svg>
