<svg viewBox="0 0 620 513" fill="none" xmlns="http://www.w3.org/2000/svg">
<path d="M512.263 124.884C504.485 129.131 500.379 139.427 500.163 155.122C499.947 167.073 501.603 167.217 511.183 156.274C522.059 143.818 526.596 130.715 521.627 125.82C519.682 123.876 514.928 123.372 512.263 124.884ZM518.386 127.619C520.186 129.419 520.33 134.027 518.746 138.419C517.377 142.307 512.191 149.938 507.582 154.978L503.908 158.937L504.268 151.378C504.917 139.139 507.87 131.435 513.272 127.835C516.225 125.82 516.585 125.82 518.386 127.619Z" fill="#1F2937"/>
<path d="M472.793 150.874C467.823 155.769 468.471 169.808 474.521 188.599C476.61 195.007 476.826 195.367 478.555 195.151C480.211 194.935 480.716 194.215 482.156 189.895C485.109 181.256 486.838 172.832 486.91 166.497C487.126 155.553 484.245 150.154 477.834 149.434C475.025 149.074 474.305 149.29 472.793 150.874ZM479.707 153.394C483.669 157.785 484.173 167.145 481.148 179.528C480.067 183.848 478.987 187.375 478.699 187.375C478.123 187.375 476.682 182.84 474.737 174.776C473.081 167.937 473.081 157.497 474.665 154.401C476.106 151.81 477.906 151.45 479.707 153.394Z" fill="#1F2937"/>
<path d="M508.662 180.824C503.332 183.344 497.93 190.112 492.168 201.703C488.783 208.327 483.813 220.062 483.813 221.286C483.813 223.95 495.481 218.622 504.701 211.782C515.36 203.863 520.114 196.663 520.186 188.312C520.186 184.424 519.898 183.56 518.313 181.976C515.865 179.528 512.263 179.096 508.662 180.824ZM515.216 183.848C518.746 187.736 515.288 197.527 507.798 204.799C503.26 209.263 490.079 218.046 489.719 216.966C489.287 215.742 497.786 198.751 501.603 193.064C505.637 187.088 510.463 182.336 512.479 182.336C513.272 182.336 514.424 182.984 515.216 183.848Z" fill="#1F2937"/>
<path d="M458.82 247.779C447.872 249.579 438.797 254.043 431.234 261.53C425.328 267.362 422.591 272.474 422.591 277.945C422.591 282.913 424.247 286.369 427.777 288.961C433.899 293.352 442.038 293.136 448.232 288.457L451.401 286.009L451.833 288.961C452.409 292.417 454.714 296.088 457.163 297.312C461.629 299.544 469.624 297.528 473.297 293.136C475.098 291.049 475.098 291.049 475.89 292.489C476.538 293.712 476.394 295.008 475.17 298.464C468.327 318.839 441.389 339.214 402.279 353.685C394.14 356.637 391.403 358.724 395.581 358.724C398.606 358.724 415.028 352.245 426.912 346.413C452.77 333.742 473.657 315.383 478.339 301.272L479.563 297.744L483.813 297.816C486.334 297.816 488.422 297.528 488.999 296.952C491.808 294.144 491.592 297.096 488.422 306.672C480.572 330.286 465.518 349.941 444.991 363.62C439.589 367.22 439.085 367.724 440.453 368.3C441.606 368.804 442.902 368.372 446.359 366.284C461.701 356.997 477.475 339.574 486.046 322.655C488.999 316.751 494.617 301.2 494.617 298.896C494.617 297.168 495.481 297.168 497.138 298.968C500.451 302.64 507.437 302.28 511.615 298.176L513.992 295.872L515 298.392C515.576 299.832 516.441 301.2 516.873 301.416C517.881 302.064 517.881 310.559 516.945 317.327C513.776 339.286 502.035 359.084 484.965 371.252C479.923 374.851 479.491 375.571 481.436 376.291C483.021 376.939 489.143 372.692 495.985 366.284C511.183 352.029 520.114 332.734 521.05 312.431L521.482 304.008H525.012C528.973 304.008 533.511 302.064 535.239 299.544C538.12 295.512 534.951 294.792 531.134 298.608C529.045 300.696 528.109 301.128 525.444 301.128C522.851 301.128 521.843 300.696 520.114 298.896C518.097 296.808 518.025 296.448 518.025 289.897C518.025 283.129 518.025 283.057 516.297 283.273C514.928 283.417 514.352 284.281 513.343 287.593C512.047 291.841 509.742 295.656 507.293 297.672C503.332 300.912 498.434 297.528 497.642 290.977C497.354 288.817 497.354 285.289 497.57 283.129C497.786 280.969 497.858 278.953 497.714 278.593C497.21 277.729 494.617 278.017 494.329 278.953C494.185 279.457 493.464 282.121 492.816 284.857C491.231 290.977 487.558 295.368 483.957 295.368C480.644 295.368 479.275 292.849 478.771 285.721C478.483 280.681 478.195 279.889 477.114 279.889C476.178 279.889 475.386 280.969 474.377 283.849C470.92 293.712 462.853 298.536 457.955 293.64C456.155 291.841 456.083 291.337 456.011 284.353C456.011 278.233 455.795 276.938 454.858 276.794C454.21 276.65 453.13 277.441 452.337 278.521C447.08 286.153 440.957 290.257 436.204 289.321C430.081 288.097 425.616 282.193 426.48 276.434C428.065 266.642 440.453 255.555 454.282 251.739C460.764 249.939 484.677 249.867 494.401 251.739C507.293 254.115 516.513 257.571 525.3 263.402C536.752 270.962 542.73 279.601 544.819 291.481C548.636 313.583 535.167 347.997 514.928 367.652C511.111 371.324 510.823 372.404 513.56 372.404C516.225 372.404 525.876 361.748 532.286 351.813C548.78 326.254 553.966 295.296 544.603 278.161C536.896 263.978 518.817 253.323 495.337 249.147C486.262 247.563 465.302 246.771 458.82 247.779Z" fill="#1F2937"/>
<path d="M141.807 156.548C125.304 159.035 116.921 161.392 105.395 166.825C94.7865 171.866 87.5173 176.972 79.2004 185.219C67.6091 196.675 61.2567 207.672 57.1965 223.514C55.7558 229.012 55.2319 232.809 55.1664 237.587L55.0354 244.133L84.0465 244.33L112.992 244.461V239.748C113.058 221.092 123.994 205.839 140.89 200.864C145.605 199.49 155.69 199.293 160.798 200.537C166.103 201.846 173.306 205.316 177.825 208.785C181.165 211.338 188.958 219.913 188.958 221.026C188.958 221.222 186.797 221.484 184.112 221.681C172.782 222.401 164.924 230.78 165.513 241.384L165.71 244.788L220.654 244.984C260.667 245.05 275.795 244.919 276.45 244.395C277.89 243.217 277.628 234.314 276.057 229.274C272.782 218.604 262.828 213.956 252.939 218.473L249.207 220.175V216.117C249.141 207.149 245.736 197.264 240.693 191.831C234.996 185.678 225.238 182.928 217.118 185.154L213.516 186.136L212.272 184.368C209.848 181.03 201.073 172.717 196.882 169.902C186.928 163.159 173.83 158.381 161.126 156.81C155.559 156.155 145.343 155.959 141.807 156.548ZM169.181 159.952C179.135 162.439 189.482 167.414 196.882 173.24C204.086 178.87 211.682 187.445 209.979 188.034C209.521 188.165 208.146 189.213 206.902 190.26L204.675 192.224L201.597 189.671C187.452 178.15 172.062 171.8 153.464 169.771C137.615 168.134 120.13 171.931 106.312 180.114C86.4695 191.962 72.1932 214.284 69.9011 237.26L69.4427 242.17L64.2692 242.366C61.3877 242.497 58.8337 242.301 58.5063 241.973C57.6549 241.122 59.0302 229.34 60.6673 223.121C67.0197 198.704 82.8022 180.179 106.705 168.854C117.052 163.945 129.299 160.148 139.449 158.708C146.325 157.726 163.025 158.446 169.181 159.952ZM154.249 172.062C168.133 173.044 185.683 180.375 198.257 190.522L202.71 194.122L200.353 197.657L197.93 201.257L194.917 198.704C183.195 188.951 170.49 184.696 153.267 184.761C136.633 184.827 120.589 189.867 108.801 198.77C98.2573 206.69 90.1368 220.633 88.1067 234.314C87.6483 237.195 87.1899 240.206 87.0589 240.991C86.797 242.432 86.535 242.497 79.8553 242.497H72.8481L73.3065 238.373C74.7472 225.805 78.8075 214.48 85.5527 204.268C98.3228 185.023 117.576 173.568 139.842 171.866C142.92 171.604 146.325 171.473 147.373 171.604C148.486 171.669 151.564 171.866 154.249 172.062ZM231.263 188.231C235.258 189.867 239.122 194.057 241.676 199.359C244.164 204.661 245.277 210.16 245.474 218.931C245.605 226.263 246.194 226.787 250.385 223.252C255.755 218.8 262.173 217.753 266.168 220.764C268.853 222.728 271.996 227.245 272.848 230.256C273.306 231.762 273.699 235.035 273.699 237.587L273.765 242.17L221.112 242.366L168.46 242.497L168.919 239.42C169.508 234.904 172.455 229.47 175.664 227.048C180.51 223.383 186.404 222.794 194.655 225.216C196.423 225.739 196.423 225.739 197.406 217.949C199.632 200.995 208.146 188.754 219.017 186.856C222.881 186.136 227.792 186.725 231.263 188.231ZM168.329 188.165C176.777 189.998 186.142 194.777 192.101 200.275C196.489 204.334 196.685 204.727 196.096 206.363C195.114 208.916 193.542 216.706 193.542 218.997C193.542 221.419 192.822 221.419 191.381 218.997C185.683 209.309 173.044 200.733 160.798 198.246C145.998 195.3 129.299 200.537 119.868 211.273C114.105 217.819 109.128 231.107 109.063 240.009V242.497H99.829H90.5298L90.9882 238.242C91.5776 232.416 94.2626 223.448 97.0131 218.277C107.557 198.115 127.661 186.987 153.594 186.921C160.012 186.921 164.007 187.249 168.329 188.165Z" fill="#1F2937"/>
<path d="M212.31 78.6641C211.065 78.3653 209.926 79.0865 208.927 80.6893C207.761 82.5592 207.584 86.5824 208.412 92.8208C209.106 98.3397 209.779 98.7059 213.7 95.9031C215.301 94.7809 217.868 92.6185 219.445 91.1103C222.064 88.6094 222.255 88.3041 222.553 86.6354C222.804 85.0431 222.67 84.7477 221.448 83.9866C220.036 83.1065 217.709 83.3525 216.323 84.5554C215.36 85.3335 214.988 84.9956 215.206 83.5415C215.357 82.364 214.218 79.4292 213.407 79.0298C213.216 78.9108 212.687 78.7399 212.31 78.6641ZM212.609 85.1558C212.227 88.5739 212.328 89.4317 212.986 89.736C213.607 90.0165 214.331 89.6199 215.898 88.2119C218.203 86.045 219.771 85.0611 220.306 85.3941C221.222 85.965 217.722 89.8779 213.148 93.387L210.904 95.1153L210.39 92.1987C209.607 87.4188 210.481 80.9162 212.007 80.5949C212.96 80.3411 213.071 81.0989 212.609 85.1558Z" fill="#1F2937"/>
<path d="M201.287 103.483C200.4 103.885 199.834 104.538 199.249 105.817L198.455 107.6L196.259 106.02C194.369 104.631 193.901 104.446 192.562 104.724C189.72 105.285 189.261 108.231 191.431 111.808C192.573 113.632 195.886 117.075 199.123 119.621L201.132 121.244L201.799 120.175C202.608 118.878 204.622 112.926 205.267 109.937C206.22 105.603 204.118 102.174 201.287 103.483ZM202.559 110.794C202.095 112.729 201.335 115.223 200.83 116.287C199.965 118.185 199.917 118.261 198.963 117.667C197.474 116.739 193.859 112.42 192.912 110.453C191.908 108.237 192.178 106.869 193.737 106.41C195.172 105.979 195.492 106.231 196.954 108.732C197.613 109.884 198.497 111.018 198.955 111.303C199.604 111.708 199.776 111.603 200.156 110.568C200.398 109.924 201.097 108.293 201.768 106.962L203.005 104.554L203.221 105.907C203.355 106.627 203.048 108.82 202.559 110.794Z" fill="#1F2937"/>
<path d="M218.683 134.244C217.953 134.479 217.124 135.128 216.553 136.044C215.673 137.456 215.587 137.509 214.837 136.671C213.405 135.142 211.811 134.467 210.515 134.931C206.945 136.151 208.209 140.33 214.001 146.429C215.51 148.005 216.999 149.356 217.338 149.409C218.191 149.57 221.699 143.86 222.496 140.965C223.598 136.989 221.567 133.445 218.683 134.244ZM219.669 141.164C219.108 142.828 218.209 144.865 217.662 145.743C216.734 147.231 216.672 147.245 215.822 146.398C213.865 144.436 211.787 141.393 211.303 139.873C210.188 136.476 212.38 135.086 213.862 138.235C215.201 141.189 215.578 141.689 216.232 141.831C216.608 141.907 216.975 141.659 217.06 141.182C217.331 139.813 218.967 136.594 219.686 136.035C220.358 135.553 220.411 135.639 220.56 136.845C220.656 137.54 220.268 139.524 219.669 141.164Z" fill="#1F2937"/>
<path d="M128.199 15.5081C127.799 16.175 125.197 27.246 125.13 28.4465C125.13 28.7799 125.931 28.9133 126.931 28.7799C128.599 28.5799 128.8 28.1797 129.934 23.2444C131.669 15.5081 131.669 15.308 130.001 15.0412C129.267 14.9078 128.399 15.1079 128.199 15.5081Z" fill="#1F2937" stroke="#1F2937" stroke-width="0.888031"/>
<path d="M95.1055 19.2427C95.1055 19.5095 96.5066 22.0438 98.2414 24.9783C100.71 28.9799 101.778 30.2471 102.912 30.2471C103.712 30.2471 104.513 30.047 104.647 29.7135C104.847 29.4468 103.579 26.9791 101.844 24.2447C99.3756 20.2431 98.3748 19.1761 96.9069 19.0427C95.9061 18.9093 95.1055 19.0427 95.1055 19.2427Z" fill="#1F2937" stroke="#1F2937" stroke-width="0.888031"/>
<path d="M149.95 33.5812C146.881 35.7154 144.413 37.7162 144.413 38.0496C144.413 38.3164 145.147 38.6499 145.947 38.7833C147.548 38.9166 157.824 31.9806 158.357 30.38C158.958 28.4459 155.155 29.9131 149.95 33.5812Z" fill="#1F2937" stroke="#1F2937" stroke-width="0.888031"/>
<path d="M114.521 44.6526C108.45 46.2533 104.313 50.1881 101.711 56.724C100.443 59.9253 100.176 61.8594 100.176 68.2619C100.11 75.0646 100.31 76.3317 101.778 79.2662C105.647 87.136 113.053 91.7378 122.128 91.7378C136.873 91.8712 146.948 82.9343 145.547 71.063C144.279 60.1254 133.804 53.3894 123.062 56.4573C116.99 58.258 113.587 62.7931 113.587 69.0622C113.587 72.0634 113.921 73.3972 115.322 75.5314C119.259 81.4671 126.665 82.4008 130.801 77.5322C133.537 74.2643 132.736 68.9288 129.534 68.9288C127.332 68.9288 127.132 69.4624 128.333 71.5965C129.2 73.1305 129.267 73.7974 128.6 75.198C127.866 76.7986 127.465 76.932 123.862 76.932C120.326 76.932 119.859 76.7319 118.725 75.1313C117.19 72.797 116.723 67.5283 117.791 64.9273C119.659 60.4588 126.131 56.9908 130.668 57.9912C133.937 58.6581 137.607 61.3258 139.609 64.327C142.211 68.2619 142.611 74.9312 140.476 79.1995C137.34 85.7354 130.401 89.6036 121.861 89.6036C114.054 89.6036 108.783 86.0689 105.381 78.5993C102.378 71.93 102.778 62.9932 106.381 55.1901C109.651 48.1207 114.054 45.9865 124.329 46.3199C131.669 46.5867 133.47 45.653 127.799 44.4525C122.795 43.4521 118.792 43.5188 114.521 44.6526Z" fill="#1F2937" stroke="#1F2937" stroke-width="0.888031"/>
<path d="M73.0876 49.188C73.0876 50.6552 73.488 50.7219 82.2952 51.2555C88.6337 51.5889 89.7679 51.5222 89.7679 50.6552C89.7679 49.188 89.4343 49.1213 80.9607 48.5877C73.955 48.1876 73.0876 48.2543 73.0876 49.188Z" fill="#1F2937" stroke="#1F2937" stroke-width="0.888031"/>
<path d="M166.964 50.9882C166.297 51.3884 163.495 52.122 160.692 52.5889C155.421 53.5226 154.554 53.9227 155.555 54.9231C156.956 56.3237 171.168 52.989 171.168 51.1883C171.168 50.0545 168.699 49.9878 166.964 50.9882Z" fill="#1F2937" stroke="#1F2937" stroke-width="0.888031"/>
<path d="M159.158 81.2668C158.557 82.0004 158.757 82.4006 160.359 83.2009C164.229 85.2017 172.569 88.2695 174.17 88.2695C176.172 88.2695 177.039 87.0691 175.371 86.5355C173.903 86.0687 165.63 82.8007 162.36 81.3335C160.292 80.4665 159.825 80.4665 159.158 81.2668Z" fill="#1F2937" stroke="#1F2937" stroke-width="0.888031"/>
<path d="M84.7637 84.8686C83.2959 85.5355 80.0265 86.6026 77.4244 87.2695C72.2869 88.6034 70.9524 89.337 72.5538 89.9372C74.6888 90.8042 91.1022 85.6689 91.1022 84.2016C91.1022 83.2012 87.6327 83.6014 84.7637 84.8686Z" fill="#1F2937" stroke="#1F2937" stroke-width="0.888031"/>
<path d="M144.145 99.6073C143.612 100.408 145.146 101.741 151.284 106.077C155.088 108.678 156.022 109.078 157.289 108.477C158.691 107.877 158.557 107.744 155.421 105.61C153.62 104.343 150.951 102.342 149.416 101.141C146.614 98.8737 144.879 98.4069 144.145 99.6073Z" fill="#1F2937" stroke="#1F2937" stroke-width="0.888031"/>
<path d="M100.51 113.346C98.7755 119.082 98.5086 120.616 99.2425 121.016C100.444 121.816 100.844 121.749 101.578 120.749C102.512 119.615 106.382 107.077 105.915 106.61C105.714 106.41 104.914 106.277 104.113 106.277C102.845 106.277 102.378 107.21 100.51 113.346Z" fill="#1F2937" stroke="#1F2937" stroke-width="0.888031"/>
<path d="M126.064 108.611C125.53 109.879 126.798 116.148 128.199 119.482C128.933 121.216 129.467 121.683 130.601 121.483C132.336 121.216 132.336 121.283 130.334 113.613C129.2 109.545 128.466 107.878 127.599 107.744C126.998 107.611 126.264 108.011 126.064 108.611Z" fill="#1F2937" stroke="#1F2937" stroke-width="0.888031"/>
<path d="M56.5115 409.297H85.0454H141.7V417.731H56.5115V409.297Z" fill="#EA580C"/>
<path d="M85.1887 409.297L86.8756 367.968H144.652L141.7 409.297H85.1887Z" fill="#FB923C"/>
<path d="M91.5146 404.236L93.6233 373.45H138.748L136.217 404.236H91.5146Z" fill="#FFEDD5"/>
<rect x="187.056" y="375.553" width="166.5" height="18.5" fill="#F97316"/>
<rect x="187.056" y="394.053" width="16.4445" height="102.778" fill="#F97316"/>
<rect x="250.778" y="394.053" width="16.4445" height="102.778" fill="#F97316"/>
<rect x="353.556" y="394.053" width="16.4445" height="102.778" fill="#FDBA74"/>
<rect x="425.501" y="394.053" width="16.4445" height="102.778" fill="#FDBA74"/>
<rect x="353.556" y="375.553" width="88.389" height="18.5" fill="#FDBA74"/>
<rect y="342.664" width="76.0557" height="75.0279" fill="#F97316"/>
<rect x="-0.000244141" y="417.692" width="76.0557" height="18.5" fill="#FDBA74"/>
<rect x="76.0557" y="417.692" width="49.3334" height="18.5" fill="#F97316"/>
<rect x="59.6113" y="436.192" width="16.4445" height="61.6668" fill="#F97316"/>
<rect x="-0.000244141" y="436.192" width="16.4445" height="61.6668" fill="#F97316"/>
<rect x="108.944" y="436.192" width="16.4445" height="61.6668" fill="#F97316"/>
<path d="M609.392 449.569C598.258 450.244 598.568 432.419 600.114 423.422V421.313L614.031 423L619.092 435.652C620.497 440.01 620.526 448.894 609.392 449.569Z" fill="#1F2937"/>
<path d="M604.753 410.77C576.751 407.734 566.095 440.713 564.268 457.582H576.076C579.309 446.336 588.812 423.928 600.958 424.266C613.103 424.603 618.108 432.841 619.092 436.917C618.389 428.764 614.537 412.12 604.753 410.77Z" fill="#26A275"/>
<path d="M534.325 359.742C519.818 361.429 533.622 425.39 542.338 457.16H551.616C551.897 423.984 548.832 358.055 534.325 359.742Z" fill="#26A275"/>
<path d="M566.376 457.582H555.411C559.488 419.486 555.411 345.825 582.402 350.464C596.853 352.948 577.341 424.266 566.376 457.582Z" fill="#26A275"/>
<path d="M523.36 426.796C525.75 427.218 532.638 431.435 534.325 444.93C536.012 458.425 534.466 460.393 534.325 459.69" stroke="#1F2937" stroke-width="2.4" stroke-linecap="round"/>
<path d="M590.415 397.275C585.61 398.116 571.762 406.519 568.37 433.408C564.979 460.298 568.087 464.219 568.37 462.819" stroke="#1F2937" stroke-width="2.4" stroke-linecap="round"/>
<circle cx="596.74" cy="391.793" r="11.3866" fill="#EA580C"/>
<circle cx="516.613" cy="419.627" r="11.3866" fill="#EA580C"/>
<rect x="516.191" y="457.16" width="84.3449" height="41.329" rx="20.6645" fill="#FB923C"/>
<path d="M129.496 246.77C129.678 246.437 130.156 246.437 130.338 246.77C133.276 252.142 137.692 256.558 143.064 259.496C143.397 259.678 143.397 260.156 143.064 260.338C137.692 263.276 133.276 267.692 130.338 273.064C130.156 273.397 129.678 273.397 129.496 273.064C126.558 267.692 122.142 263.276 116.77 260.338C116.437 260.156 116.437 259.678 116.77 259.496C122.142 256.558 126.558 252.142 129.496 246.77Z" fill="#FB923C"/>
<path d="M444.496 88.7703C444.678 88.4373 445.156 88.4373 445.338 88.7703C448.276 94.1416 452.692 98.5579 458.064 101.496C458.397 101.678 458.397 102.156 458.064 102.338C452.692 105.276 448.276 109.692 445.338 115.064C445.156 115.397 444.678 115.397 444.496 115.064C441.558 109.692 437.142 105.276 431.77 102.338C431.437 102.156 431.437 101.678 431.77 101.496C437.142 98.5579 441.558 94.1416 444.496 88.7703Z" fill="#FB923C"/>
<path d="M445.806 439.959C435.685 432.649 417.973 410.016 431.468 404.112C443.952 398.65 448.056 425.62 445.806 439.959Z" fill="#339C73"/>
<path d="M450.867 439.115C451.289 430.4 454.325 413.728 463.097 416.764C471.869 419.8 458.599 432.93 450.867 439.115Z" fill="#339C73"/>
<path d="M445.806 448.815C446.228 444.036 446.313 433.465 443.276 429.416" stroke="#1F2937" stroke-width="2.4" stroke-linecap="round"/>
<path d="M450.221 448.394C449.832 445.692 449.754 439.717 452.554 437.429" stroke="#1F2937" stroke-width="2.4" stroke-linecap="round"/>
<path d="M476.592 448.815H420.503C418.956 465.544 412.912 499.001 450.445 499.001C478.11 499.001 479.404 465.544 476.592 448.815Z" fill="#EA580C"/>
<path fill-rule="evenodd" clip-rule="evenodd" d="M344.664 174.633C338.55 188.643 324.575 198.435 308.313 198.435C291.051 198.435 276.366 187.401 270.925 172.001C263.807 171.796 258.099 165.961 258.099 158.793C258.099 151.625 263.807 145.79 270.925 145.585C276.365 130.184 291.051 119.15 308.313 119.15C326.567 119.15 341.939 131.487 346.546 148.278C353.266 148.899 358.527 154.553 358.527 161.435C358.527 168.733 352.611 174.649 345.313 174.649C345.095 174.649 344.879 174.644 344.664 174.633Z" fill="#FED7AA"/>
<path fill-rule="evenodd" clip-rule="evenodd" d="M304.734 156.259C303.48 153.762 300.775 152.045 297.585 152.045C296.184 152.045 294.02 152.982 293.129 154.504C293.002 154.855 292.493 154.855 292.366 154.504C291.347 153.099 289.31 152.162 287.783 152.162C283.582 152.162 280.018 155.323 279.891 159.187V159.421C279.891 161.412 280.782 163.285 282.309 164.69V164.807C282.437 164.924 288.547 169.842 291.347 172.066C292.111 172.652 293.257 172.652 294.02 172.066C295.197 171.132 296.935 169.722 298.574 168.393L298.574 168.393C300.837 166.557 302.911 164.875 303.058 164.807V164.69C304.586 163.402 305.477 161.529 305.477 159.421V159.187C305.475 159.127 305.472 159.068 305.469 159.009C306.311 158.871 307.256 158.793 308.315 158.793C310.15 158.793 311.643 159.028 312.852 159.401C312.782 159.748 312.74 160.104 312.728 160.465V160.699C312.728 162.689 313.619 164.563 315.147 165.968V166.085C315.274 166.202 321.384 171.12 324.185 173.344C324.948 173.93 326.094 173.93 326.858 173.344C328.034 172.41 329.771 171.001 331.41 169.671L331.411 169.671C333.674 167.835 335.748 166.153 335.896 166.085V165.968C337.423 164.68 338.314 162.807 338.314 160.699V160.465C338.187 156.484 334.75 153.323 330.422 153.323C329.022 153.323 326.858 154.259 325.967 155.782C325.839 156.133 325.33 156.133 325.203 155.782C324.185 154.377 322.148 153.44 320.62 153.44C317.9 153.44 315.446 154.766 314.02 156.75C312.648 156.306 310.793 156.009 308.315 156.009C306.937 156.009 305.751 156.101 304.734 156.259Z" fill="#EA580C"/>
<path d="M301.706 174.51C302.146 175.391 304.084 177.153 308.313 177.153C312.541 177.153 314.479 175.391 314.92 174.51" stroke="#EA580C" stroke-width="2.4" stroke-linecap="round" stroke-linejoin="round"/>
<path d="M301.89 124.522C300.503 125.608 298.324 129.986 299.525 133.065C300.726 136.144 302.604 136.907 303.557 137.152" stroke="#EA580C" stroke-width="2.4" stroke-linecap="round"/>
<path d="M310.375 127.019C308.987 127.965 307.99 132.037 309.319 134.882C310.309 136.999 312.839 137.821 313.645 138.028" stroke="#EA580C" stroke-width="2.4" stroke-linecap="round"/>
<path d="M317.378 128.466C316.713 129.338 317.201 131.851 318.343 133.552C319.018 134.558 321.063 136.027 321.605 135.989" stroke="#EA580C" stroke-width="2.4" stroke-linecap="round"/>
<rect x="276.655" y="201.809" width="66.6325" height="147.604" rx="33.3162" fill="#FED7AA"/>
<rect x="177.128" y="312.301" width="271.591" height="63.2587" rx="31.6294" fill="#319E73"/>
<path d="M365.639 324.109H255.569" stroke="#1F2937" stroke-width="2.4"/>
<path d="M330.214 350.256C330.214 364.23 319.521 375.559 309.971 375.559C300.422 375.559 290.15 364.23 290.15 350.256C290.15 336.281 300.422 324.952 309.971 324.952C319.521 324.952 330.214 336.281 330.214 350.256Z" fill="#FDBA74"/>
<path d="M309.971 324.952V375.559" stroke="#1F2937" stroke-width="2.4"/>
<path d="M355.096 222.066C342.276 205.197 321.077 201.542 312.08 201.823L341.601 268.877C343.569 276.75 349.023 294.687 355.096 303.459C361.169 312.231 393.754 316.799 412.029 323.265L434.802 298.82L383.352 272.673C379.275 262.833 367.916 238.935 355.096 222.066Z" fill="#FED7AA"/>
<path fill-rule="evenodd" clip-rule="evenodd" d="M455.809 319.021C457.851 318.614 459.7 317.32 460.719 315.35L461.478 313.884C463.227 310.503 461.871 306.41 458.449 304.742L447.273 299.294C446.497 298.814 445.683 298.357 444.843 297.909C446.236 296.4 446.972 294.303 446.668 292.136L446.439 290.501C445.91 286.731 442.437 284.176 438.68 284.795L425.065 287.038C421.868 287.353 414.185 287.138 410.497 286.978L410.501 287.015C410.485 287.012 410.47 287.01 410.454 287.007L395.407 318.205C397.598 322.968 400.5 327.693 403.858 331.87C404.124 332.309 404.452 332.735 404.848 333.142L405.373 333.682C408.228 336.962 411.364 339.824 414.64 341.988C417.696 344.275 420.947 346.314 424.361 348.084L426.677 349.284C429.886 350.947 433.888 349.895 435.855 346.87L437.025 345.071C437.607 344.175 437.952 343.198 438.075 342.214L439.812 343.083C443.216 344.787 447.423 343.443 449.209 340.081L449.983 338.623C450.84 337.008 450.983 335.221 450.523 333.612C453.834 334.972 457.742 333.601 459.445 330.393L460.219 328.935C462.004 325.573 460.692 321.465 457.287 319.761L455.809 319.021Z" fill="#FED7AA"/>
<path d="M444.859 297.938C442.768 298.742 438.023 300.321 435.765 300.203" stroke="#1F2937" stroke-width="2.4" stroke-linecap="round"/>
<path d="M455.941 318.813C452.406 317.688 444.752 315.106 442.42 313.785" stroke="#1F2937" stroke-width="2.4" stroke-linecap="round"/>
<path d="M450.564 333.929C447.233 332.294 440.044 328.612 437.932 326.962" stroke="#1F2937" stroke-width="2.4" stroke-linecap="round"/>
<path d="M437.857 342.704C434.709 340.741 427.93 336.349 425.996 334.493" stroke="#1F2937" stroke-width="2.4" stroke-linecap="round"/>
<path d="M264.673 222.066C277.493 205.197 298.692 201.542 307.688 201.823L278.168 268.877C276.2 276.75 270.745 294.687 264.673 303.459C258.6 312.231 226.014 316.799 207.74 323.265L184.967 298.82L236.417 272.673C240.494 262.833 251.852 238.935 264.673 222.066Z" fill="#FED7AA"/>
<path fill-rule="evenodd" clip-rule="evenodd" d="M163.959 319.021C161.917 318.614 160.068 317.32 159.049 315.35L158.29 313.884C156.541 310.503 157.897 306.41 161.319 304.742L172.496 299.294C173.271 298.814 174.086 298.357 174.926 297.909C173.532 296.4 172.796 294.303 173.1 292.136L173.329 290.501C173.858 286.731 177.332 284.176 181.088 284.795L194.704 287.038C197.9 287.353 205.584 287.138 209.271 286.979L209.267 287.015C209.283 287.012 209.299 287.01 209.314 287.007L224.361 318.205C222.17 322.968 219.268 327.693 215.911 331.87C215.644 332.309 215.316 332.735 214.921 333.142L214.396 333.682C211.54 336.962 208.404 339.824 205.129 341.988C202.072 344.275 198.821 346.314 195.408 348.084L193.091 349.284C189.882 350.947 185.88 349.895 183.914 346.87L182.744 345.071C182.161 344.175 181.816 343.198 181.694 342.214L179.956 343.083C176.552 344.787 172.345 343.443 170.56 340.081L169.786 338.623C168.928 337.008 168.785 335.221 169.245 333.612C165.934 334.972 162.027 333.601 160.323 330.393L159.549 328.935C157.764 325.573 159.077 321.465 162.481 319.761L163.959 319.021Z" fill="#FED7AA"/>
<path d="M174.91 297.938C177 298.742 181.746 300.321 184.004 300.203" stroke="#1F2937" stroke-width="2.4" stroke-linecap="round"/>
<path d="M163.827 318.813C167.362 317.688 175.016 315.106 177.349 313.785" stroke="#1F2937" stroke-width="2.4" stroke-linecap="round"/>
<path d="M169.205 333.929C172.535 332.294 179.724 328.612 181.836 326.962" stroke="#1F2937" stroke-width="2.4" stroke-linecap="round"/>
<path d="M181.911 342.704C185.059 340.741 191.838 336.349 193.772 334.493" stroke="#1F2937" stroke-width="2.4" stroke-linecap="round"/>
<path fill-rule="evenodd" clip-rule="evenodd" d="M307.946 219.257C315.865 219.257 322.284 212.838 322.284 204.919C322.284 204.207 322.233 203.508 322.133 202.824C332.349 204.763 345.828 210.081 355.01 222.195C367.831 239.109 379.189 263.071 383.266 272.937L355.01 303.806C350.37 297.086 346.092 285.002 343.453 276.153V312.3H276.821V273.844C274.278 282.779 269.649 296.48 264.591 303.806L236.335 272.937C240.412 263.071 251.77 239.109 264.591 222.195C272.67 211.536 284.077 206.138 293.66 203.675C293.625 204.085 293.607 204.499 293.607 204.919C293.607 212.838 300.027 219.257 307.946 219.257Z" fill="#8DD7E2"/>
<rect x="298.581" y="193.373" width="18.5559" height="15.1821" fill="#FED7AA"/>
<circle cx="38.5713" cy="320.507" r="20.2428" transform="rotate(-22.9297 38.5713 320.507)" fill="#FFF7ED" stroke="#EA580C" stroke-width="4.21725"/>
<rect x="29.9421" y="303.958" width="2.40155" height="18.1424" rx="1.20077" transform="rotate(-22.9297 29.9421 303.958)" fill="#EA580C"/>
<rect x="41.4993" y="309.113" width="2.35632" height="11.5585" rx="1.17816" transform="rotate(22.3107 41.4993 309.113)" fill="#EA580C"/>
<circle cx="38.2138" cy="320.179" r="2.12823" transform="rotate(-22.9297 38.2138 320.179)" fill="#EA580C"/>
<path d="M322.198 202.651C322.198 210.57 315.778 218.677 307.859 218.677C299.94 218.677 293.52 211.508 293.52 203.495" stroke="#1F2937" stroke-width="2.4"/>
<path d="M343.284 276.453C346.517 285.028 353.405 302.431 355.092 303.443C359.816 299.732 377.303 279.827 383.348 272.658L371.961 249.041" stroke="#1F2937" stroke-width="2.4"/>
<path d="M343.284 276.453V300.491" stroke="#1F2937" stroke-width="2.4"/>
<path d="M276.651 273.923C273.418 282.498 266.108 302.431 264.421 303.443C259.698 299.732 242.211 279.827 236.166 272.658L247.552 249.041" stroke="#1F2937" stroke-width="2.4"/>
<path d="M276.651 274.345L276.23 300.492" stroke="#1F2937" stroke-width="2.4"/>
</svg>
