<svg viewBox="0 0 588 486" fill="none" xmlns="http://www.w3.org/2000/svg">
<path d="M485.824 118.311C478.446 122.335 474.553 132.089 474.348 146.958C474.143 158.28 475.714 158.416 484.799 148.049C495.114 136.249 499.417 123.836 494.704 119.198C492.859 117.356 488.351 116.879 485.824 118.311ZM491.63 120.903C493.338 122.608 493.474 126.973 491.971 131.134C490.674 134.817 485.755 142.047 481.384 146.821L477.9 150.573L478.241 143.411C478.856 131.816 481.657 124.518 486.78 121.108C489.581 119.198 489.922 119.198 491.63 120.903Z" fill="currentColor"/>
<path d="M448.391 142.933C443.677 147.571 444.292 160.872 450.03 178.673C452.011 184.744 452.216 185.085 453.855 184.88C455.426 184.676 455.905 183.994 457.271 179.901C460.071 171.716 461.711 163.736 461.779 157.734C461.984 147.367 459.252 142.251 453.172 141.569C450.508 141.228 449.825 141.433 448.391 142.933ZM454.948 145.321C458.705 149.481 459.183 158.348 456.314 170.079C455.29 174.172 454.265 177.514 453.992 177.514C453.445 177.514 452.079 173.217 450.235 165.578C448.664 159.098 448.664 149.208 450.167 146.275C451.533 143.82 453.241 143.479 454.948 145.321Z" fill="currentColor"/>
<path d="M482.408 171.307C477.353 173.694 472.23 180.106 466.766 191.087C463.555 197.362 458.842 208.48 458.842 209.639C458.842 212.163 469.908 207.115 478.651 200.636C488.761 193.133 493.269 186.313 493.338 178.401C493.338 174.717 493.064 173.899 491.562 172.398C489.239 170.079 485.824 169.67 482.408 171.307ZM488.624 174.172C491.971 177.855 488.693 187.131 481.589 194.02C477.285 198.249 464.785 206.57 464.443 205.547C464.033 204.387 472.094 188.291 475.714 182.902C479.539 177.241 484.116 172.739 486.029 172.739C486.78 172.739 487.873 173.353 488.624 174.172Z" fill="currentColor"/>
<path d="M435.138 234.739C424.756 236.445 416.149 240.673 408.976 247.767C403.375 253.291 400.779 258.134 400.779 263.318C400.779 268.024 402.35 271.298 405.697 273.753C411.504 277.914 419.223 277.709 425.097 273.276L428.103 270.957L428.513 273.753C429.059 277.027 431.245 280.506 433.567 281.665C437.803 283.78 445.385 281.87 448.868 277.709C450.576 275.731 450.576 275.731 451.328 277.095C451.942 278.255 451.806 279.483 450.645 282.757C444.155 302.059 418.608 321.361 381.516 335.071C373.797 337.867 371.202 339.845 375.164 339.845C378.032 339.845 393.607 333.707 404.878 328.182C429.401 316.178 449.21 298.785 453.65 285.417L454.811 282.075L458.842 282.143C461.232 282.143 463.213 281.87 463.76 281.324C466.424 278.664 466.219 281.461 463.213 290.532C455.768 312.904 441.491 331.524 422.023 344.483C416.9 347.894 416.422 348.371 417.72 348.917C418.813 349.394 420.042 348.985 423.321 347.007C437.871 338.208 452.83 321.702 460.959 305.674C463.76 300.081 469.088 285.348 469.088 283.166C469.088 281.529 469.908 281.529 471.479 283.234C474.621 286.713 481.247 286.372 485.209 282.484L487.463 280.301L488.419 282.688C488.966 284.053 489.785 285.348 490.195 285.553C491.152 286.167 491.152 294.215 490.263 300.627C487.258 321.43 476.124 340.186 459.934 351.713C455.153 355.123 454.743 355.806 456.587 356.488C458.09 357.101 463.896 353.077 470.386 347.007C484.799 333.502 493.269 315.223 494.157 295.989L494.567 288.008H497.914C501.671 288.008 505.974 286.167 507.614 283.78C510.346 279.96 507.341 279.278 503.72 282.893C501.739 284.871 500.851 285.28 498.324 285.28C495.865 285.28 494.908 284.871 493.269 283.166C491.356 281.188 491.288 280.847 491.288 274.64C491.288 268.229 491.288 268.16 489.649 268.365C488.351 268.502 487.804 269.32 486.848 272.457C485.619 276.482 483.433 280.097 481.11 282.006C477.353 285.076 472.708 281.87 471.957 275.663C471.684 273.617 471.684 270.275 471.888 268.229C472.093 266.182 472.162 264.273 472.025 263.932C471.547 263.113 469.088 263.386 468.815 264.273C468.678 264.75 467.995 267.274 467.38 269.866C465.877 275.663 462.394 279.824 458.978 279.824C455.836 279.824 454.538 277.437 454.06 270.684C453.787 265.91 453.513 265.159 452.489 265.159C451.601 265.159 450.849 266.182 449.893 268.911C446.614 278.255 438.964 282.825 434.319 278.187C432.611 276.482 432.543 276.004 432.474 269.388C432.474 263.591 432.27 262.363 431.381 262.227C430.767 262.09 429.742 262.84 428.991 263.863C424.004 271.093 418.198 274.981 413.69 274.094C407.883 272.935 403.648 267.342 404.468 261.885C405.971 252.609 417.72 242.106 430.835 238.491C436.983 236.786 459.661 236.717 468.883 238.491C481.11 240.742 489.854 244.015 498.187 249.54C509.048 256.702 514.718 264.887 516.699 276.141C520.319 297.08 507.546 329.683 488.351 348.303C484.73 351.781 484.457 352.804 487.053 352.804C489.58 352.804 498.734 342.71 504.813 333.297C520.456 309.084 525.374 279.756 516.494 263.522C509.185 250.086 492.04 239.991 469.771 236.035C461.164 234.535 441.286 233.785 435.138 234.739Z" fill="currentColor"/>
<path d="M134.489 148.309C118.838 150.666 110.888 152.898 99.9571 158.046C89.8957 162.821 83.0017 167.658 75.114 175.472C64.121 186.324 58.0965 196.743 54.2458 211.75C52.8795 216.96 52.3826 220.556 52.3205 225.084L52.1963 231.285L79.71 231.471L107.162 231.595V227.13C107.224 209.456 117.596 195.006 133.62 190.293C138.091 188.991 147.656 188.805 152.5 189.983C157.531 191.224 164.363 194.51 168.648 197.797C171.816 200.216 179.207 208.34 179.207 209.394C179.207 209.58 177.157 209.828 174.611 210.014C163.866 210.696 156.413 218.634 156.972 228.68L157.158 231.905L209.267 232.091C247.215 232.153 261.561 232.029 262.183 231.533C263.549 230.417 263.301 221.983 261.81 217.208C258.705 207.099 249.264 202.696 239.886 206.975L236.346 208.588V204.743C236.284 196.247 233.054 186.882 228.272 181.735C222.868 175.906 213.614 173.301 205.913 175.41L202.497 176.34L201.317 174.666C199.019 171.503 190.697 163.627 186.722 160.96C177.281 154.573 164.86 150.046 152.811 148.557C147.532 147.937 137.843 147.751 134.489 148.309ZM160.45 151.534C169.89 153.891 179.703 158.604 186.722 164.123C193.554 169.456 200.758 177.58 199.143 178.138C198.708 178.262 197.404 179.255 196.224 180.247L194.112 182.107L191.193 179.689C177.778 168.774 163.183 162.759 145.544 160.836C130.514 159.286 113.931 162.883 100.827 170.635C82.008 181.859 68.4685 203.006 66.2947 224.773L65.86 229.425L60.9535 229.611C58.2207 229.735 55.7985 229.549 55.488 229.239C54.6806 228.432 55.9849 217.27 57.5376 211.378C63.562 188.247 78.53 170.697 101.199 159.968C111.012 155.317 122.626 151.72 132.253 150.356C138.774 149.426 154.612 150.108 160.45 151.534ZM146.29 163.007C159.456 163.937 176.101 170.883 188.026 180.495L192.249 183.906L190.013 187.255L187.715 190.665L184.858 188.247C173.741 179.007 161.692 174.976 145.358 175.038C129.583 175.1 114.366 179.875 103.187 188.309C93.1874 195.813 85.486 209.022 83.5607 221.983C83.1259 224.711 82.6912 227.564 82.567 228.308C82.3185 229.673 82.0701 229.735 75.7351 229.735H69.0896L69.5244 225.828C70.8907 213.921 74.7414 203.192 81.1385 193.518C93.2495 175.286 111.509 164.433 132.626 162.821C135.545 162.573 138.774 162.449 139.768 162.573C140.824 162.635 143.743 162.821 146.29 163.007ZM219.328 178.324C223.117 179.875 226.781 183.844 229.203 188.867C231.563 193.89 232.619 199.099 232.806 207.409C232.93 214.355 233.489 214.851 237.464 211.502C242.557 207.285 248.643 206.293 252.432 209.146C254.978 211.006 257.959 215.285 258.767 218.138C259.201 219.564 259.574 222.665 259.574 225.084L259.636 229.425L209.702 229.611L159.767 229.735L160.202 226.82C160.761 222.541 163.555 217.394 166.599 215.099C171.195 211.626 176.784 211.068 184.61 213.363C186.287 213.859 186.287 213.859 187.219 206.479C189.33 190.417 197.404 178.821 207.714 177.022C211.378 176.34 216.037 176.898 219.328 178.324ZM159.643 178.262C167.655 179.999 176.536 184.526 182.188 189.735C186.349 193.58 186.535 193.952 185.976 195.503C185.045 197.921 183.554 205.301 183.554 207.471C183.554 209.766 182.871 209.766 181.505 207.471C176.101 198.293 164.114 190.169 152.5 187.813C138.464 185.022 122.626 189.983 113.683 200.154C108.217 206.355 103.497 218.944 103.435 227.378V229.735H94.678H85.8587L86.2934 225.704C86.8524 220.184 89.3988 211.688 92.0074 206.789C102.007 187.689 121.074 177.146 145.668 177.084C151.755 177.084 155.544 177.394 159.643 178.262Z" fill="currentColor"/>
<path d="M201.354 74.5252C200.173 74.2422 199.093 74.9254 198.145 76.4438C197.039 78.2153 196.872 82.0268 197.657 87.9369C198.315 93.1652 198.953 93.5122 202.672 90.8569C204.19 89.7938 206.625 87.7452 208.12 86.3164C210.605 83.9471 210.785 83.6579 211.068 82.077C211.306 80.5685 211.179 80.2887 210.02 79.5676C208.681 78.7338 206.474 78.9669 205.159 80.1064C204.247 80.8436 203.894 80.5234 204.1 79.1459C204.243 78.0303 203.164 75.25 202.394 74.8716C202.213 74.759 201.711 74.597 201.354 74.5252ZM201.637 80.6752C201.275 83.9134 201.371 84.7261 201.995 85.0144C202.584 85.2801 203.27 84.9044 204.757 83.5705C206.943 81.5176 208.43 80.5856 208.937 80.9011C209.806 81.4419 206.486 85.1488 202.149 88.4732L200.021 90.1105L199.533 87.3475C198.791 82.8192 199.62 76.6588 201.067 76.3544C201.971 76.114 202.076 76.8318 201.637 80.6752Z" fill="currentColor"/>
<path d="M190.899 98.0374C190.058 98.4178 189.521 99.0371 188.966 100.248L188.213 101.938L186.131 100.441C184.338 99.1247 183.895 98.9492 182.624 99.2127C179.93 99.7443 179.494 102.536 181.552 105.924C182.635 107.652 185.778 110.913 188.847 113.326L190.753 114.863L191.384 113.851C192.152 112.622 194.062 106.984 194.674 104.152C195.578 100.046 193.584 96.7968 190.899 98.0374ZM192.106 104.963C191.665 106.797 190.945 109.159 190.466 110.167C189.646 111.965 189.6 112.038 188.695 111.474C187.283 110.595 183.855 106.504 182.957 104.64C182.004 102.541 182.261 101.245 183.739 100.81C185.1 100.402 185.403 100.641 186.79 103.01C187.415 104.102 188.253 105.175 188.688 105.446C189.303 105.829 189.466 105.729 189.827 104.749C190.056 104.139 190.719 102.594 191.355 101.333L192.528 99.0514L192.734 100.334C192.861 101.015 192.57 103.093 192.106 104.963Z" fill="currentColor"/>
<path d="M207.398 127.18C206.706 127.402 205.92 128.017 205.378 128.884C204.543 130.222 204.462 130.272 203.751 129.478C202.392 128.03 200.881 127.391 199.651 127.83C196.265 128.986 197.464 132.945 202.957 138.723C204.388 140.216 205.801 141.496 206.122 141.546C206.932 141.698 210.258 136.289 211.014 133.547C212.059 129.779 210.133 126.422 207.398 127.18ZM208.333 133.735C207.801 135.312 206.949 137.241 206.43 138.073C205.549 139.483 205.491 139.496 204.685 138.693C202.828 136.835 200.857 133.952 200.399 132.512C199.341 129.294 201.42 127.977 202.825 130.96C204.095 133.758 204.453 134.232 205.073 134.367C205.43 134.439 205.778 134.203 205.859 133.752C206.115 132.455 207.667 129.405 208.349 128.876C208.986 128.419 209.036 128.501 209.178 129.643C209.269 130.302 208.901 132.181 208.333 133.735Z" fill="currentColor"/>
<path d="M121.584 14.6927C121.204 15.3245 118.736 25.8128 118.673 26.9501C118.673 27.266 119.432 27.3924 120.381 27.266C121.963 27.0765 122.153 26.6974 123.229 22.0219C124.874 14.6927 124.874 14.5031 123.292 14.2504C122.596 14.124 121.773 14.3136 121.584 14.6927Z" fill="currentColor" stroke="currentColor" stroke-width="0.842197"/>
<path d="M90.1973 18.2311C90.1973 18.4838 91.5261 20.8848 93.1713 23.6648C95.5126 27.4558 96.525 28.6562 97.6007 28.6562C98.3601 28.6562 99.1194 28.4667 99.2459 28.1508C99.4358 27.8981 98.2335 25.5603 96.5883 22.9698C94.247 19.1788 93.2979 18.1679 91.9058 18.0416C90.9566 17.9152 90.1973 18.0416 90.1973 18.2311Z" fill="currentColor" stroke="currentColor" stroke-width="0.842197"/>
<path d="M142.211 31.8151C139.3 33.8369 136.959 35.7324 136.959 36.0483C136.959 36.301 137.655 36.617 138.414 36.7433C139.933 36.8697 149.678 30.2987 150.184 28.7823C150.753 26.95 147.147 28.34 142.211 31.8151Z" fill="currentColor" stroke="currentColor" stroke-width="0.842197"/>
<path d="M108.611 42.3032C102.853 43.8196 98.9298 47.5474 96.4619 53.7393C95.2597 56.7721 95.0066 58.6044 95.0066 64.6699C94.9433 71.1145 95.1331 72.315 96.5252 75.0951C100.195 82.5506 107.219 86.9102 115.825 86.9102C129.809 87.0366 139.364 78.5701 138.035 67.3236C136.833 56.9616 126.898 50.5802 116.711 53.4866C110.952 55.1925 107.725 59.4889 107.725 65.4281C107.725 68.2713 108.042 69.535 109.371 71.5568C113.104 77.1801 120.128 78.0646 124.051 73.4523C126.645 70.3564 125.886 65.3017 122.849 65.3017C120.76 65.3017 120.571 65.8072 121.71 67.829C122.532 69.2822 122.596 69.9141 121.963 71.2409C121.267 72.7573 120.887 72.8837 117.47 72.8837C114.116 72.8837 113.673 72.6941 112.598 71.1777C111.142 68.9663 110.699 63.9749 111.712 61.5108C113.484 57.2775 119.622 53.992 123.924 54.9398C127.025 55.5716 130.505 58.0989 132.404 60.9421C134.871 64.6699 135.251 70.9882 133.226 75.0319C130.252 81.2238 123.671 84.8884 115.572 84.8884C108.168 84.8884 103.169 81.5397 99.9422 74.4632C97.0947 68.145 97.4744 59.6785 100.891 52.2861C103.992 45.5887 108.168 43.5669 117.913 43.8828C124.874 44.1355 126.582 43.251 121.203 42.1137C116.458 41.1659 112.661 41.2291 108.611 42.3032Z" fill="currentColor" stroke="currentColor" stroke-width="0.842197"/>
<path d="M69.3164 46.6C69.3164 47.9901 69.6961 48.0532 78.0487 48.5587C84.0601 48.8746 85.1358 48.8114 85.1358 47.9901C85.1358 46.6 84.8194 46.5369 76.7832 46.0314C70.139 45.6523 69.3164 45.7155 69.3164 46.6Z" fill="currentColor" stroke="currentColor" stroke-width="0.842197"/>
<path d="M158.348 48.3057C157.715 48.6848 155.057 49.3798 152.399 49.8221C147.401 50.7067 146.578 51.0858 147.527 52.0335C148.856 53.3603 162.334 50.2012 162.334 48.4953C162.334 47.4212 159.993 47.358 158.348 48.3057Z" fill="currentColor" stroke="currentColor" stroke-width="0.842197"/>
<path d="M150.944 76.9908C150.374 77.6858 150.564 78.0649 152.083 78.8231C155.753 80.7186 163.663 83.625 165.181 83.625C167.079 83.625 167.902 82.4877 166.32 81.9822C164.928 81.54 157.082 78.444 153.981 77.054C152.019 76.2326 151.577 76.2326 150.944 76.9908Z" fill="currentColor" stroke="currentColor" stroke-width="0.842197"/>
<path d="M80.3894 80.4027C78.9973 81.0345 75.8967 82.0455 73.4289 82.6773C68.5565 83.9409 67.291 84.6359 68.8096 85.2046C70.8345 86.026 86.4008 81.1609 86.4008 79.7709C86.4008 78.8231 83.1103 79.2022 80.3894 80.4027Z" fill="currentColor" stroke="currentColor" stroke-width="0.842197"/>
<path d="M136.707 94.3654C136.2 95.1235 137.656 96.3872 143.477 100.494C147.084 102.958 147.97 103.337 149.172 102.769C150.501 102.2 150.375 102.074 147.401 100.052C145.692 98.8513 143.161 96.9558 141.706 95.8186C139.048 93.6703 137.403 93.2281 136.707 94.3654Z" fill="currentColor" stroke="currentColor" stroke-width="0.842197"/>
<path d="M95.3235 107.381C93.6783 112.815 93.4252 114.268 94.1212 114.647C95.2602 115.405 95.6399 115.342 96.3359 114.394C97.2218 113.32 100.892 101.442 100.449 101C100.259 100.81 99.4998 100.684 98.7405 100.684C97.5382 100.684 97.0952 101.568 95.3235 107.381Z" fill="currentColor" stroke="currentColor" stroke-width="0.842197"/>
<path d="M119.559 102.895C119.052 104.096 120.255 110.035 121.584 113.194C122.28 114.837 122.786 115.279 123.862 115.089C125.507 114.837 125.507 114.9 123.608 107.634C122.533 103.78 121.837 102.2 121.014 102.074C120.445 101.947 119.749 102.327 119.559 102.895Z" fill="currentColor" stroke="currentColor" stroke-width="0.842197"/>
<path d="M53.5957 388.172H80.657H134.387V396.171H53.5957V388.172Z" fill="#EA580C"/>
<path d="M80.793 388.172L82.3928 348.976H137.187L134.387 388.172H80.793Z" fill="#FB923C"/>
<path d="M86.792 383.372L88.7918 354.175H131.587L129.188 383.372H86.792Z" fill="#FFEDD5"/>
<rect x="177.401" y="356.17" width="157.907" height="17.5452" fill="#F97316"/>
<rect x="177.401" y="373.715" width="15.5957" height="97.4733" fill="#F97316"/>
<rect x="237.835" y="373.715" width="15.5957" height="97.4733" fill="#F97316"/>
<rect x="335.308" y="373.715" width="15.5957" height="97.4733" fill="#FDBA74"/>
<rect x="403.539" y="373.715" width="15.5957" height="97.4733" fill="#FDBA74"/>
<rect x="335.308" y="356.17" width="83.827" height="17.5452" fill="#FDBA74"/>
<rect y="324.979" width="72.1302" height="71.1555" fill="#F97316"/>
<rect y="396.134" width="72.1302" height="17.5452" fill="#FDBA74"/>
<rect x="72.1299" y="396.134" width="46.7872" height="17.5452" fill="#F97316"/>
<rect x="56.5342" y="413.679" width="15.5957" height="58.484" fill="#F97316"/>
<rect y="413.679" width="15.5957" height="58.484" fill="#F97316"/>
<rect x="103.321" y="413.679" width="15.5957" height="58.484" fill="#F97316"/>
<path d="M577.94 426.367C567.381 427.006 567.674 410.102 569.14 401.569V399.569L582.339 401.169L587.139 413.168C588.472 417.301 588.498 425.727 577.94 426.367Z" fill="currentColor"/>
<path d="M573.54 389.57C546.983 386.691 536.877 417.967 535.144 433.966H546.343C549.409 423.3 558.422 402.049 569.94 402.369C581.459 402.689 586.205 410.501 587.139 414.368C586.472 406.635 582.819 390.85 573.54 389.57Z" fill="#26A275"/>
<path d="M506.747 341.175C492.988 342.775 506.08 403.435 514.346 433.566H523.145C523.412 402.102 520.505 339.575 506.747 341.175Z" fill="#26A275"/>
<path d="M537.144 433.966H526.745C530.611 397.836 526.745 327.977 552.342 332.376C566.048 334.732 547.543 402.369 537.144 433.966Z" fill="#26A275"/>
<path d="M496.348 404.769C498.615 405.169 505.147 409.168 506.747 421.967C508.347 434.765 506.88 436.632 506.747 435.965" stroke="currentColor" stroke-width="2.27613" stroke-linecap="round"/>
<path d="M559.941 376.771C555.385 377.568 542.251 385.538 539.035 411.04C535.818 436.541 538.767 440.26 539.035 438.932" stroke="currentColor" stroke-width="2.27613" stroke-linecap="round"/>
<circle cx="565.94" cy="371.572" r="10.7989" fill="#EA580C"/>
<circle cx="489.949" cy="397.969" r="10.7989" fill="#EA580C"/>
<rect x="489.549" y="433.565" width="79.9917" height="39.1959" rx="19.598" fill="#FB923C"/>
<path d="M122.812 234.034C122.985 233.718 123.438 233.718 123.611 234.034V234.034C126.397 239.128 130.585 243.317 135.679 246.103V246.103C135.995 246.276 135.995 246.729 135.679 246.902V246.902C130.585 249.688 126.397 253.876 123.611 258.97V258.97C123.438 259.286 122.985 259.286 122.812 258.97V258.97C120.026 253.876 115.837 249.688 110.743 246.902V246.902C110.427 246.729 110.427 246.276 110.743 246.103V246.103C115.837 243.317 120.026 239.128 122.812 234.034V234.034Z" fill="#FB923C"/>
<path d="M421.554 84.189C421.727 83.8732 422.18 83.8732 422.353 84.189V84.189C425.139 89.2831 429.327 93.4715 434.422 96.2576V96.2576C434.737 96.4303 434.737 96.8839 434.422 97.0567V97.0567C429.327 99.8427 425.139 104.031 422.353 109.125V109.125C422.18 109.441 421.727 109.441 421.554 109.125V109.125C418.768 104.031 414.58 99.8427 409.485 97.0567V97.0567C409.17 96.8839 409.17 96.4303 409.485 96.2576V96.2576C414.58 93.4715 418.768 89.2831 421.554 84.189V84.189Z" fill="#FB923C"/>
<path d="M422.797 417.251C413.198 410.319 396.4 388.855 409.199 383.255C421.038 378.075 424.93 403.653 422.797 417.251Z" fill="#339C73"/>
<path d="M427.597 416.452C427.997 408.186 430.876 392.374 439.195 395.254C447.515 398.134 434.929 410.586 427.597 416.452Z" fill="#339C73"/>
<path d="M422.797 425.651C423.197 421.118 423.277 411.092 420.397 407.252" stroke="currentColor" stroke-width="2.27613" stroke-linecap="round"/>
<path d="M426.984 425.25C426.615 422.688 426.542 417.022 429.197 414.852" stroke="currentColor" stroke-width="2.27613" stroke-linecap="round"/>
<path d="M451.994 425.651H398.8C397.333 441.516 391.601 473.246 427.197 473.246C453.434 473.246 454.661 441.516 451.994 425.651Z" fill="#EA580C"/>
<path fill-rule="evenodd" clip-rule="evenodd" d="M326.553 165.6C320.597 178.503 307.544 187.458 292.4 187.458C276.307 187.458 262.575 177.346 257.212 163.129C250.336 163.077 244.778 157.486 244.778 150.598C244.778 143.885 250.055 138.406 256.687 138.081C261.63 123.088 275.751 112.266 292.4 112.266C309.984 112.266 324.748 124.337 328.858 140.645C335.136 141.326 340.022 146.644 340.022 153.103C340.022 160.024 334.411 165.635 327.49 165.635C327.175 165.635 326.863 165.623 326.553 165.6Z" fill="#FED7AA"/>
<path fill-rule="evenodd" clip-rule="evenodd" d="M289.077 148.183C287.922 145.738 285.313 144.043 282.225 144.043C280.897 144.043 278.845 144.931 278 146.373C277.879 146.706 277.396 146.706 277.275 146.373C276.31 145.042 274.378 144.154 272.929 144.154C268.945 144.154 265.565 147.149 265.444 150.81V151.032C265.444 152.917 266.289 154.692 267.738 156.023V156.134C267.859 156.245 273.654 160.904 276.31 163.011C277.034 163.566 278.121 163.566 278.845 163.011C279.96 162.126 281.609 160.79 283.163 159.531L283.163 159.531L283.163 159.531C285.309 157.792 287.276 156.198 287.416 156.134V156.023C288.865 154.803 289.71 153.028 289.71 151.032V150.81C289.71 150.807 289.71 150.804 289.71 150.801C290.507 150.671 291.401 150.597 292.402 150.597C294.127 150.597 295.534 150.816 296.675 151.166C296.626 151.446 296.596 151.731 296.587 152.02V152.242C296.587 154.128 297.432 155.902 298.881 157.234V157.344C299.001 157.455 304.796 162.114 307.452 164.222C308.177 164.776 309.263 164.776 309.987 164.222C311.103 163.336 312.751 162.001 314.305 160.742L314.306 160.741C316.452 159.003 318.419 157.409 318.559 157.344V157.234C320.008 156.013 320.853 154.239 320.853 152.242V152.02C320.732 148.249 317.472 145.254 313.368 145.254C312.04 145.254 309.987 146.141 309.142 147.583C309.022 147.916 308.539 147.916 308.418 147.583C307.452 146.252 305.521 145.365 304.072 145.365C301.433 145.365 299.058 146.679 297.721 148.631C296.429 148.226 294.697 147.958 292.402 147.958C291.127 147.958 290.026 148.041 289.077 148.183Z" fill="#EA580C"/>
<path d="M286.134 165.502C286.552 166.338 288.39 168.009 292.4 168.009C296.41 168.009 298.248 166.338 298.666 165.502" stroke="#EA580C" stroke-width="2.27613" stroke-linecap="round" stroke-linejoin="round"/>
<path d="M286.308 118.096C284.993 119.126 282.926 123.277 284.065 126.198C285.204 129.118 286.985 129.842 287.89 130.074" stroke="#EA580C" stroke-width="2.27613" stroke-linecap="round"/>
<path d="M294.356 120.464C293.039 121.362 292.093 125.223 293.354 127.921C294.292 129.929 296.693 130.708 297.457 130.905" stroke="#EA580C" stroke-width="2.27613" stroke-linecap="round"/>
<path d="M300.997 121.836C300.367 122.663 300.829 125.046 301.912 126.66C302.553 127.613 304.492 129.006 305.006 128.971" stroke="#EA580C" stroke-width="2.27613" stroke-linecap="round"/>
<rect x="262.375" y="191.393" width="63.1934" height="139.985" rx="31.5967" fill="#FED7AA"/>
<rect x="167.985" y="296.182" width="257.573" height="59.9937" rx="29.9969" fill="#319E73"/>
<path d="M346.767 307.38H242.378" stroke="#1F2937" stroke-width="2.27613"/>
<path d="M313.17 332.178C313.17 345.432 303.028 356.176 293.972 356.176C284.915 356.176 275.174 345.432 275.174 332.178C275.174 318.925 284.915 308.181 293.972 308.181C303.028 308.181 313.17 318.925 313.17 332.178Z" fill="#FDBA74"/>
<path d="M293.972 308.181V356.176" stroke="#1F2937" stroke-width="2.27613"/>
<path d="M336.768 210.605C324.61 194.607 304.505 191.14 295.973 191.407L323.97 255C325.836 262.466 331.009 279.478 336.768 287.797C342.528 296.116 373.431 300.448 390.763 306.581L412.36 283.397L363.565 258.6C359.699 249.268 348.927 226.603 336.768 210.605Z" fill="#FED7AA"/>
<path fill-rule="evenodd" clip-rule="evenodd" d="M432.283 302.556C434.22 302.17 435.973 300.943 436.94 299.074L437.659 297.684C439.319 294.477 438.033 290.595 434.787 289.013L424.19 283.849C423.454 283.392 422.68 282.958 421.883 282.533C423.204 281.102 423.902 279.113 423.614 277.058L423.396 275.508C422.895 271.932 419.601 269.509 416.038 270.096L403.119 272.224C400.083 272.522 392.805 272.318 389.31 272.167L389.314 272.201C389.299 272.199 389.284 272.196 389.269 272.194L374.999 301.781C377.077 306.298 379.829 310.779 383.013 314.741C383.266 315.157 383.577 315.561 383.952 315.947L384.451 316.461C387.159 319.57 390.132 322.284 393.238 324.336C396.137 326.505 399.22 328.44 402.458 330.118L404.655 331.257C407.698 332.834 411.494 331.836 413.359 328.967L414.469 327.261C415.021 326.411 415.348 325.485 415.464 324.551L417.112 325.376C420.34 326.992 424.33 325.717 426.023 322.528L426.757 321.146C427.571 319.614 427.706 317.92 427.27 316.393C430.411 317.683 434.116 316.383 435.731 313.341L436.465 311.958C438.159 308.769 436.914 304.874 433.685 303.258L432.283 302.556Z" fill="#FED7AA"/>
<path d="M421.898 282.562C419.915 283.324 415.415 284.821 413.273 284.709" stroke="#1F2937" stroke-width="2.27613" stroke-linecap="round"/>
<path d="M432.409 302.359C429.056 301.291 421.797 298.843 419.585 297.59" stroke="#1F2937" stroke-width="2.27613" stroke-linecap="round"/>
<path d="M427.308 316.695C424.15 315.144 417.332 311.652 415.329 310.087" stroke="#1F2937" stroke-width="2.27613" stroke-linecap="round"/>
<path d="M415.258 325.016C412.273 323.154 405.843 318.989 404.009 317.229" stroke="#1F2937" stroke-width="2.27613" stroke-linecap="round"/>
<path d="M251.012 210.605C263.171 194.607 283.275 191.14 291.808 191.407L263.811 255C261.944 262.466 256.771 279.478 251.012 287.797C245.253 296.116 214.349 300.448 197.018 306.581L175.42 283.397L224.215 258.6C228.081 249.268 238.853 226.603 251.012 210.605Z" fill="#FED7AA"/>
<path fill-rule="evenodd" clip-rule="evenodd" d="M155.497 302.555C153.56 302.169 151.807 300.942 150.84 299.074L150.12 297.684C148.461 294.477 149.747 290.595 152.993 289.013L163.594 283.846C164.329 283.39 165.101 282.957 165.897 282.533C164.575 281.102 163.878 279.113 164.166 277.058L164.383 275.507C164.885 271.932 168.179 269.509 171.742 270.096L184.661 272.223C187.695 272.522 194.975 272.318 198.47 272.167L198.467 272.201C198.482 272.198 198.497 272.196 198.512 272.193L212.782 301.781C210.703 306.299 207.951 310.781 204.766 314.743C204.513 315.158 204.202 315.562 203.828 315.947L203.333 316.456C200.624 319.569 197.648 322.285 194.539 324.338C191.641 326.506 188.559 328.44 185.322 330.118L183.125 331.256C180.082 332.834 176.287 331.835 174.421 328.967L173.312 327.26C172.759 326.41 172.432 325.485 172.316 324.551L170.669 325.375C167.44 326.992 163.45 325.717 161.757 322.528L161.023 321.145C160.21 319.614 160.074 317.919 160.511 316.393C157.37 317.683 153.664 316.383 152.049 313.34L151.315 311.958C149.622 308.769 150.866 304.873 154.095 303.257L155.497 302.555Z" fill="#FED7AA"/>
<path d="M165.882 282.561C167.864 283.323 172.365 284.82 174.506 284.708" stroke="#1F2937" stroke-width="2.27613" stroke-linecap="round"/>
<path d="M155.371 302.359C158.724 301.291 165.982 298.843 168.194 297.59" stroke="#1F2937" stroke-width="2.27613" stroke-linecap="round"/>
<path d="M160.471 316.693C163.63 315.143 170.448 311.65 172.451 310.085" stroke="#1F2937" stroke-width="2.27613" stroke-linecap="round"/>
<path d="M172.522 325.015C175.507 323.153 181.937 318.988 183.771 317.228" stroke="#1F2937" stroke-width="2.27613" stroke-linecap="round"/>
<path fill-rule="evenodd" clip-rule="evenodd" d="M292.051 207.941C299.561 207.941 305.649 201.853 305.649 194.343C305.649 193.668 305.6 193.004 305.505 192.356C315.195 194.195 327.978 199.238 336.686 210.727C348.845 226.768 359.617 249.493 363.483 258.85L336.686 288.126C332.286 281.752 328.228 270.291 325.725 261.899V296.182H262.532V259.711C260.12 268.185 255.73 281.178 250.933 288.126L224.136 258.85C228.002 249.493 238.775 226.768 250.933 210.727C258.596 200.618 269.414 195.499 278.503 193.163C278.469 193.551 278.452 193.945 278.452 194.343C278.452 201.853 284.541 207.941 292.051 207.941Z" fill="#8DD7E2"/>
<rect x="283.17" y="183.394" width="17.5982" height="14.3985" fill="#FED7AA"/>
<circle cx="36.5794" cy="303.965" r="19.198" transform="rotate(-22.9297 36.5794 303.965)" fill="#FFF7ED" stroke="#EA580C" stroke-width="3.99958"/>
<rect x="28.3955" y="288.27" width="2.2776" height="17.206" rx="1.1388" transform="rotate(-22.9297 28.3955 288.27)" fill="#EA580C"/>
<rect x="39.3564" y="293.159" width="2.23471" height="10.9619" rx="1.11735" transform="rotate(22.3107 39.3564 293.159)" fill="#EA580C"/>
<ellipse cx="2.01838" cy="2.01838" rx="2.01838" ry="2.01838" transform="matrix(0.920984 -0.389601 0.389602 0.920983 33.5947 301.846)" fill="#EA580C"/>
<path d="M305.568 192.192C305.568 199.703 299.48 207.391 291.97 207.391C284.459 207.391 278.371 200.592 278.371 192.992" stroke="#1F2937" stroke-width="2.27613"/>
<path d="M325.566 262.185C328.632 270.318 335.165 286.823 336.765 287.783C341.244 284.263 357.829 265.385 363.562 258.586L352.763 236.188" stroke="#1F2937" stroke-width="2.27613"/>
<path d="M325.566 262.185V284.983" stroke="#1F2937" stroke-width="2.27613"/>
<path d="M262.373 259.786C259.306 267.918 252.374 286.823 250.774 287.783C246.294 284.263 229.709 265.385 223.977 258.586L234.775 236.188" stroke="#1F2937" stroke-width="2.27613"/>
<path d="M262.373 260.185L261.973 284.982" stroke="#1F2937" stroke-width="2.27613"/>
</svg>
