<svg viewBox="0 0 56 27" fill="none" xmlns="http://www.w3.org/2000/svg">
<g clip-path="url(#clip0_1_3939)">
<path d="M4.37325 18.4138V15.0077C4.37325 14.1495 4.64144 13.8277 5.49965 13.8277H12.1508C12.6469 13.8277 12.9956 14.0825 12.9956 14.5786C12.9956 15.0748 12.6738 15.3296 12.1508 15.3296H6.59923C6.50537 15.3296 6.46514 15.3832 6.46514 15.4771V15.933H12.0837C12.5933 15.933 12.9285 16.161 12.9285 16.6705C12.9285 17.1801 12.5933 17.408 12.0837 17.408H6.45173V17.9444C6.45173 18.0383 6.49196 18.0785 6.58582 18.0785H12.3251C12.8347 18.0785 13.1699 18.3333 13.1699 18.8429C13.1699 19.3524 12.8347 19.5938 12.3251 19.5938H5.49965C4.64144 19.5938 4.37325 19.272 4.37325 18.4138ZM9.30796 8.41023V9.16117C9.30796 11.4944 6.96129 13.0231 4.09165 13.6668C3.55526 13.7875 3.05911 13.6265 2.91161 13.0768C2.75069 12.527 3.03229 12.1247 3.58208 11.9772C5.29851 11.5347 7.26971 10.824 7.26971 9.42936V9.28185C7.26971 9.09412 7.21607 9.01366 7.02834 9.01366H3.99778C3.43458 9.01366 3.07252 8.75888 3.07252 8.19568C3.07252 7.61907 3.43458 7.36429 3.99778 7.36429H8.11451C8.93249 7.36429 9.30796 7.75316 9.30796 8.41023ZM10.8501 12.3526V8.11522C10.8501 7.48497 11.2926 7.14973 11.9228 7.14973C12.5531 7.14973 12.9956 7.48497 12.9956 8.11522V9.22822H13.9208C14.484 9.22822 14.8863 9.50982 14.8863 10.1132C14.8863 10.7167 14.484 10.9983 13.9208 10.9983H12.9956V12.3526C12.9956 12.9829 12.5531 13.3315 11.9228 13.3315C11.2926 13.3315 10.8501 12.9829 10.8501 12.3526ZM24.2962 18.6015V8.14204C24.2962 7.49838 24.7387 7.14973 25.3689 7.14973C26.0126 7.14973 26.4417 7.49838 26.4417 8.14204V18.6015C26.4417 19.2452 26.0126 19.5938 25.3689 19.5938C24.7387 19.5938 24.2962 19.2452 24.2962 18.6015ZM22.7138 12.0576C22.7138 14.7261 21.5874 16.4694 19.214 16.4694C16.8405 16.4694 15.7141 14.7261 15.7141 12.0576C15.7141 9.38913 16.8405 7.64589 19.214 7.64589C21.5874 7.64589 22.7138 9.38913 22.7138 12.0576ZM19.214 14.6725C20.2867 14.6725 20.622 13.5059 20.622 12.0576C20.622 10.6094 20.2867 9.44277 19.214 9.44277C18.1412 9.44277 17.806 10.6094 17.806 12.0576C17.806 13.5059 18.1412 14.6725 19.214 14.6725ZM36.7531 15.3296H31.0809C30.5445 15.3296 30.2495 15.115 30.2495 14.5786C30.2495 14.0422 30.5445 13.8277 31.0809 13.8277H37.7722C38.6439 13.8277 38.8718 14.0422 38.8718 14.9005V16.2548C38.8718 17.1264 38.5902 17.3812 37.7186 17.3812H32.3548C32.3012 17.3812 32.2609 17.408 32.2609 17.4751V17.9981C32.2609 18.0651 32.3012 18.0785 32.3548 18.0785H38.2952C38.8316 18.0785 39.14 18.3065 39.14 18.8429C39.14 19.3792 38.8316 19.5938 38.2952 19.5938H31.3893C30.5177 19.5938 30.2495 19.339 30.2495 18.4674V17.0192C30.2495 16.1475 30.5043 15.9062 31.3759 15.9062H36.7531C36.8202 15.9062 36.8604 15.8794 36.8604 15.8123V15.4234C36.8604 15.3564 36.8202 15.3296 36.7531 15.3296ZM35.1574 12.6208C34.0176 12.8354 32.7437 12.9024 31.6039 12.9024H30.2763C29.3913 12.9024 28.9488 12.4733 28.9488 11.5883V8.67842C28.9488 7.8068 29.3913 7.36429 30.2763 7.36429H34.3528C34.8892 7.36429 35.2513 7.6593 35.2513 8.19568C35.2513 8.73206 34.8892 9.02707 34.3528 9.02707H31.1747C31.0407 9.02707 31.0138 9.0673 31.0138 9.2014V11.0519C31.0138 11.186 31.0541 11.2396 31.1882 11.2396H31.7514C32.8375 11.2396 34.0578 11.1324 34.916 10.9849C35.3988 10.891 35.8279 11.0385 35.9217 11.5749C36.029 12.1247 35.6669 12.527 35.1574 12.6208ZM36.7263 12.3526V8.11522C36.7263 7.48497 37.1688 7.14973 37.7991 7.14973C38.4293 7.14973 38.8718 7.48497 38.8718 8.11522V9.22822H39.7971C40.3603 9.22822 40.7626 9.50982 40.7626 10.1132C40.7626 10.7167 40.3603 10.9983 39.7971 10.9983H38.8718V12.3526C38.8718 12.9829 38.4293 13.3315 37.7991 13.3315C37.1688 13.3315 36.7263 12.9829 36.7263 12.3526ZM51.3525 19.5133H44.9561C44.0845 19.5133 43.7358 19.1915 43.7358 18.3199V15.9196C43.7358 15.048 44.0845 14.7395 44.9561 14.7395H51.3525C52.2241 14.7395 52.5593 15.048 52.5593 15.9196V18.3199C52.5593 19.1915 52.2241 19.5133 51.3525 19.5133ZM46.82 13.7472C45.9216 13.8947 45.1438 13.9752 44.1381 13.9752H43.3738C42.4619 13.9752 42.0731 13.5863 42.0731 12.7147V11.1592C42.0731 10.2876 42.4619 9.88528 43.3738 9.88528H45.0097C45.1438 9.88528 45.1841 9.84505 45.1841 9.71096V9.14776C45.1841 9.01366 45.1438 8.98684 45.0097 8.98684H43.0654C42.529 8.98684 42.1401 8.71865 42.1401 8.19568C42.1401 7.6593 42.529 7.39111 43.0654 7.39111H45.8143C46.7396 7.39111 47.115 7.76657 47.115 8.66501V10.1401C47.115 11.0385 46.7396 11.4274 45.8143 11.4274H44.1649C44.0308 11.4274 44.004 11.4542 44.004 11.5883V12.2588C44.004 12.3929 44.0308 12.4197 44.1649 12.4197H44.4063C45.1304 12.4197 45.8143 12.3258 46.5518 12.2454C47.0614 12.1917 47.5173 12.2722 47.5978 12.8086C47.6782 13.3449 47.3296 13.6668 46.82 13.7472ZM48.0135 13.1438V8.18227C48.0135 7.60566 48.3621 7.28383 48.9387 7.28383C49.5154 7.28383 49.864 7.60566 49.864 8.18227V9.75119H50.6954V8.06158C50.6954 7.48497 51.0575 7.14973 51.6341 7.14973C52.2107 7.14973 52.5593 7.48497 52.5593 8.06158V13.1706C52.5593 13.7472 52.2107 14.0691 51.6341 14.0691C51.0575 14.0691 50.6954 13.7472 50.6954 13.1706V11.3335H49.864V13.1438C49.864 13.7204 49.5288 14.0422 48.9387 14.0422C48.3621 14.0422 48.0135 13.7204 48.0135 13.1438ZM50.2797 16.3487H46.0155C45.935 16.3487 45.8814 16.4023 45.8814 16.4828V17.7701C45.8814 17.8506 45.935 17.9042 46.0155 17.9042H50.2797C50.3602 17.9042 50.4138 17.8506 50.4138 17.7701V16.4828C50.4138 16.4023 50.3602 16.3487 50.2797 16.3487Z" fill="white"/>
</g>
<defs>
<clipPath id="clip0_1_3939">
<rect width="56" height="27" fill="white"/>
</clipPath>
</defs>
</svg>
