<svg viewBox="0 0 24 24" fill="none" xmlns="http://www.w3.org/2000/svg">
<g clip-path="url(#clip0_1_3888)">
<circle cx="12" cy="12" r="11.7" fill="#F9FAFB" stroke="#9CA3AF" stroke-width="0.6"/>
<circle cx="12" cy="12" r="11.4" stroke="#E5E7EB" stroke-width="1.2"/>
<path fill-rule="evenodd" clip-rule="evenodd" d="M18.8774 14.9969C17.7207 17.6474 15.0768 19.5 12.0001 19.5C8.73419 19.5 5.95584 17.4125 4.92652 14.499C3.57979 14.4602 2.5 13.3562 2.5 12.0001C2.5 10.644 3.57976 9.54007 4.92645 9.50116C5.95572 6.58757 8.73412 4.5 12.0001 4.5C15.4535 4.5 18.3617 6.83403 19.2334 10.0106C20.5047 10.1283 21.5001 11.1979 21.5001 12.4999C21.5001 13.8806 20.3808 14.9999 19.0001 14.9999C18.9589 14.9999 18.918 14.9989 18.8774 14.9969Z" fill="#E5E7EB"/>
<path fill-rule="evenodd" clip-rule="evenodd" d="M11.3 10.8007C11.0637 10.3264 10.551 10 9.94627 10C9.68146 10 9.27222 10.1772 9.10371 10.4652C9.07964 10.5316 8.98334 10.5316 8.95927 10.4652C8.76668 10.1994 8.38151 10.0222 8.09263 10.0222C7.29822 10.0222 6.62417 10.6202 6.6001 11.3512V11.3955C6.6001 11.7721 6.76861 12.1265 7.05749 12.3924V12.4145C7.08156 12.4367 8.23707 13.367 8.76668 13.7879C8.91112 13.8987 9.12778 13.8987 9.27222 13.7879C9.49468 13.6111 9.82333 13.3444 10.1333 13.0929L10.1333 13.0929L10.1333 13.0929C10.5612 12.7457 10.9535 12.4274 10.9814 12.4145V12.3924C11.2369 12.1769 11.3982 11.8747 11.4321 11.5319C11.5988 11.5114 11.7873 11.4999 12.0001 11.4999C12.3235 11.4999 12.5909 11.5266 12.8108 11.5707C12.8105 11.5781 12.8102 11.5854 12.8099 11.5928V11.6371C12.8099 12.0137 12.9784 12.3681 13.2673 12.634V12.6561C13.2914 12.6783 14.4469 13.6086 14.9765 14.0295C15.1209 14.1403 15.3376 14.1403 15.482 14.0295C15.7045 13.8527 16.0331 13.586 16.3431 13.3345C16.771 12.9873 17.1633 12.669 17.1912 12.6561V12.634C17.4801 12.3903 17.6486 12.0359 17.6486 11.6371V11.5928C17.6245 10.8397 16.9746 10.2416 16.1561 10.2416C15.8913 10.2416 15.482 10.4188 15.3135 10.7068C15.2894 10.7732 15.1932 10.7732 15.1691 10.7068C14.9765 10.441 14.5913 10.2638 14.3024 10.2638C13.791 10.2638 13.3294 10.5117 13.059 10.8834C12.8015 10.8031 12.4566 10.7499 12.0001 10.7499C11.7291 10.7499 11.4974 10.7686 11.3 10.8007Z" fill="#6B7280"/>
<path d="M10.75 14.25C10.8333 14.4167 11.2 14.75 12 14.75C12.8 14.75 13.1667 14.4167 13.25 14.25" stroke="#6B7280" stroke-width="0.75" stroke-linecap="round" stroke-linejoin="round"/>
<path d="M10.7964 5.57838C10.5341 5.78391 10.1217 6.61207 10.3489 7.19465C10.5762 7.77723 10.9315 7.92158 11.1119 7.96798" stroke="#6B7280" stroke-width="0.596195" stroke-linecap="round"/>
<path d="M12.3902 5.98833C12.1275 6.1674 11.9388 6.9377 12.1904 7.47593C12.3776 7.87648 12.8564 8.03195 13.0088 8.07114" stroke="#6B7280" stroke-width="0.596195" stroke-linecap="round"/>
<path d="M13.7153 6.26241C13.5895 6.42738 13.6817 6.90283 13.8978 7.22467C14.0256 7.41495 14.4125 7.69284 14.5149 7.68574" stroke="#6B7280" stroke-width="0.595" stroke-linecap="round"/>
</g>
<defs>
<clipPath id="clip0_1_3888">
<rect width="24" height="24" fill="white"/>
</clipPath>
</defs>
</svg>
