<svg viewBox="0 0 24 24" fill="none" xmlns="http://www.w3.org/2000/svg">
<path fill-rule="evenodd" clip-rule="evenodd" d="M8.58982 7.31547C8.10369 6.82934 8.10369 6.04116 8.58982 5.55503C9.07596 5.0689 9.86413 5.0689 10.3503 5.55503L17.6951 12.8999C17.7337 12.835 17.7817 12.6999 17.7817 12.4832C17.7817 12.4103 17.6879 12.1812 17.5563 11.8595C17.0743 10.6819 16.0846 8.26354 17.329 7.73022C18.4966 7.22986 19.4183 9.8022 20.0942 11.6885C20.3355 12.3619 20.5455 12.9478 20.7241 13.2753C20.7454 13.3143 20.7674 13.3544 20.79 13.3956C21.4906 14.67 22.775 17.0064 19.7056 20.4048C16.537 23.9129 11.8972 22.2154 10.3128 20.6311C9.58168 19.8999 8.88816 19.1838 8.26708 18.5349C8.26205 18.5301 8.25706 18.5252 8.25209 18.5202L3.61094 13.879C3.1248 13.3929 3.12481 12.6047 3.61094 12.1186C4.09707 11.6325 4.88524 11.6325 5.37138 12.1186L8.84643 15.5936L9.01773 15.4387L3.83686 10.2578C3.35073 9.77165 3.35073 8.98347 3.83686 8.49734C4.32299 8.01121 5.11117 8.01121 5.5973 8.49734L10.8662 13.7662L11.0379 13.6109L5.42144 7.99446C4.93531 7.50832 4.93531 6.72015 5.42144 6.23402C5.90757 5.74788 6.69575 5.74788 7.18188 6.23402L12.8863 11.9385L13.0578 11.7834L8.58982 7.31547Z" fill="#EA580C"/>
<path d="M12.3975 2.9707C12.8189 2.95467 13.8212 3.11913 14.4588 3.9052C15.0965 4.69128 15.2717 5.65701 15.2795 6.04162" stroke="#FACC15" stroke-width="1.19251" stroke-linecap="round"/>
<path d="M15.1714 1.29297C15.4321 1.28355 16.0524 1.38769 16.4479 1.87964C16.8435 2.37159 16.9532 2.97512 16.9587 3.21539" stroke="#FACC15" stroke-width="1.19251" stroke-linecap="round"/>
<path d="M7.33813 20.6328C6.92036 20.6905 5.90671 20.6262 5.19433 19.9071C4.48194 19.1881 4.21197 18.2444 4.16603 17.8625" stroke="#FACC15" stroke-width="1.19251" stroke-linecap="round"/>
<path d="M4.74414 22.5771C4.48566 22.6123 3.85812 22.5702 3.41575 22.1198C2.97338 21.6695 2.80441 21.0798 2.77522 20.8412" stroke="#FACC15" stroke-width="1.19251" stroke-linecap="round"/>
</svg>
