<svg width="116" height="36" viewBox="0 0 116 36" fill="none" xmlns="http://www.w3.org/2000/svg">
<rect width="116" height="36" rx="12" fill="#FFF7ED"/>
<path fill-rule="evenodd" clip-rule="evenodd" d="M20.5898 13.3155C20.1037 12.8293 20.1037 12.0412 20.5898 11.555C21.076 11.0689 21.8641 11.0689 22.3503 11.555L29.6951 18.8999C29.7337 18.835 29.7817 18.6999 29.7817 18.4832C29.7817 18.4103 29.6879 18.1812 29.5563 17.8595C29.0743 16.6819 28.0846 14.2635 29.329 13.7302C30.4966 13.2299 31.4183 15.8022 32.0942 17.6885C32.3355 18.3619 32.5455 18.9478 32.7241 19.2753C32.7454 19.3143 32.7674 19.3544 32.79 19.3956C33.4906 20.67 34.775 23.0064 31.7056 26.4048C28.537 29.9129 23.8972 28.2154 22.3128 26.6311C21.5817 25.8999 20.8882 25.1838 20.2671 24.5349C20.2621 24.5301 20.2571 24.5252 20.2521 24.5202L15.6109 19.879C15.1248 19.3929 15.1248 18.6047 15.6109 18.1186C16.0971 17.6325 16.8852 17.6325 17.3714 18.1186L20.8464 21.5936L21.0177 21.4387L15.8369 16.2578C15.3507 15.7716 15.3507 14.9835 15.8369 14.4973C16.323 14.0112 17.1112 14.0112 17.5973 14.4973L22.8662 19.7662L23.0379 19.6109L17.4214 13.9945C16.9353 13.5083 16.9353 12.7201 17.4214 12.234C17.9076 11.7479 18.6957 11.7479 19.1819 12.234L24.8863 17.9385L25.0578 17.7834L20.5898 13.3155Z" fill="#EA580C"/>
<path d="M24.3975 8.9707C24.8189 8.95467 25.8212 9.11913 26.4588 9.9052C27.0965 10.6913 27.2717 11.657 27.2795 12.0416" stroke="#FACC15" stroke-width="1.19251" stroke-linecap="round"/>
<path d="M27.1714 7.29297C27.4321 7.28355 28.0524 7.38769 28.4479 7.87964C28.8435 8.37159 28.9532 8.97512 28.9587 9.21539" stroke="#FACC15" stroke-width="1.19251" stroke-linecap="round"/>
<path d="M19.3381 26.6328C18.9204 26.6905 17.9067 26.6262 17.1943 25.9071C16.4819 25.1881 16.212 24.2444 16.166 23.8625" stroke="#FACC15" stroke-width="1.19251" stroke-linecap="round"/>
<path d="M16.7441 28.5771C16.4857 28.6123 15.8581 28.5702 15.4158 28.1198C14.9734 27.6695 14.8044 27.0798 14.7752 26.8412" stroke="#FACC15" stroke-width="1.19251" stroke-linecap="round"/>
<path d="M48.0312 20.6875V21.7539H38.3516V20.6875H42.5234V18.3789H39.418V13.2695H46.918V18.3789H43.8125V20.6875H48.0312ZM40.6953 14.3125V17.3594H45.6289V14.3125H40.6953ZM57.5469 12.4609V18.4609H56.2344V12.4609H57.5469ZM57.5469 18.9766V22.9141H50.5156V18.9766H57.5469ZM51.8047 20.0078V21.8594H56.2695V20.0078H51.8047ZM51.7695 12.9648C53.3984 12.9648 54.6172 13.9961 54.6172 15.4961C54.6172 16.9492 53.3984 18.0039 51.7695 18.0039C50.1289 18.0039 48.9102 16.9492 48.9102 15.4961C48.9102 13.9961 50.1289 12.9648 51.7695 12.9648ZM51.7695 14.0664C50.8438 14.0664 50.1758 14.6172 50.1875 15.4961C50.1758 16.3516 50.8438 16.9023 51.7695 16.9023C52.6836 16.9023 53.3398 16.3516 53.3398 15.4961C53.3398 14.6172 52.6836 14.0664 51.7695 14.0664ZM71.6211 20.6992V21.7656H61.9414V20.6992H66.1133V18.6367H63.0078V13.1523H64.3086V14.8867H69.2188V13.1523H70.5195V18.6367H67.4023V20.6992H71.6211ZM64.3086 17.582H69.2188V15.9297H64.3086V17.582ZM81.4062 12.4492V23.043H80.1523V17.6875H78.9805V22.5039H77.7617V12.6484H78.9805V16.6211H80.1523V12.4492H81.4062ZM74.082 13.668V19.2578C74.9961 19.2402 75.998 19.1641 77.1055 18.9414L77.2344 20.0781C75.8047 20.3359 74.5977 20.4062 73.4727 20.4062H72.7695V13.668H74.082ZM92.3398 18.3555V19.4102H88.1328V23.0312H86.8438V19.4102H82.6836V18.3555H92.3398ZM91.4492 13.0469V14.0781H88.2734C88.3496 15.2383 89.7441 16.3516 91.8359 16.6211L91.3672 17.6406C89.5625 17.3887 88.1562 16.5625 87.5117 15.4141C86.8672 16.5625 85.4609 17.3887 83.6797 17.6406L83.1875 16.6211C85.2676 16.3516 86.6621 15.2383 86.7617 14.0781H83.5742V13.0469H91.4492ZM101.902 12.4492V23.043H100.59V12.4492H101.902ZM98.7383 13.5742C98.7383 16.7266 97.5195 19.4102 93.8047 21.168L93.125 20.125C95.8965 18.8066 97.1855 17.0137 97.4141 14.6055H93.6641V13.5742H98.7383Z" fill="#EA580C"/>
</svg>
