<svg viewBox="0 0 48 48" fill="none" xmlns="http://www.w3.org/2000/svg">
<circle cx="24" cy="24" r="24" fill="#FFF7ED"/>
<path fill-rule="evenodd" clip-rule="evenodd" d="M20.5898 19.3155C20.1037 18.8293 20.1037 18.0412 20.5898 17.555C21.076 17.0689 21.8641 17.0689 22.3503 17.555L29.6951 24.8999C29.7337 24.835 29.7817 24.6999 29.7817 24.4832C29.7817 24.4103 29.6879 24.1812 29.5563 23.8595C29.0743 22.6819 28.0846 20.2635 29.329 19.7302C30.4966 19.2299 31.4183 21.8022 32.0942 23.6885C32.3355 24.3619 32.5455 24.9478 32.7241 25.2753C32.7454 25.3143 32.7674 25.3544 32.79 25.3956C33.4906 26.67 34.775 29.0064 31.7056 32.4048C28.537 35.9129 23.8972 34.2154 22.3128 32.6311C21.5817 31.8999 20.8882 31.1838 20.2671 30.5349C20.2621 30.5301 20.2571 30.5252 20.2521 30.5202L15.6109 25.879C15.1248 25.3929 15.1248 24.6047 15.6109 24.1186C16.0971 23.6325 16.8852 23.6325 17.3714 24.1186L20.8464 27.5936L21.0177 27.4387L15.8369 22.2578C15.3507 21.7716 15.3507 20.9835 15.8369 20.4973C16.323 20.0112 17.1112 20.0112 17.5973 20.4973L22.8662 25.7662L23.0379 25.6109L17.4214 19.9945C16.9353 19.5083 16.9353 18.7201 17.4214 18.234C17.9076 17.7479 18.6957 17.7479 19.1819 18.234L24.8863 23.9385L25.0578 23.7834L20.5898 19.3155Z" fill="#EA580C"/>
<path d="M24.3975 14.9707C24.8189 14.9547 25.8212 15.1191 26.4588 15.9052C27.0965 16.6913 27.2717 17.657 27.2795 18.0416" stroke="#FACC15" stroke-width="1.19251" stroke-linecap="round"/>
<path d="M27.1714 13.293C27.4321 13.2835 28.0524 13.3877 28.4479 13.8796C28.8435 14.3716 28.9532 14.9751 28.9587 15.2154" stroke="#FACC15" stroke-width="1.19251" stroke-linecap="round"/>
<path d="M19.3381 32.6328C18.9204 32.6905 17.9067 32.6262 17.1943 31.9071C16.4819 31.1881 16.212 30.2444 16.166 29.8625" stroke="#FACC15" stroke-width="1.19251" stroke-linecap="round"/>
<path d="M16.7441 34.5771C16.4857 34.6123 15.8581 34.5702 15.4158 34.1198C14.9734 33.6695 14.8044 33.0798 14.7752 32.8412" stroke="#FACC15" stroke-width="1.19251" stroke-linecap="round"/>
</svg>
